<?xml version="1.0" encoding="UTF-8"?> <svg xmlns="http://www.w3.org/2000/svg" width="142" height="142" viewBox="0 0 142 142" fill="none"> <path d="M66.3843 1.64329C69.0713 -0.547764 72.9286 -0.547764 75.6154 1.64329L81.4087 6.36759C83.2323 7.85405 85.6598 8.37159 87.9302 7.75789L95.128 5.81281C98.4705 4.90954 101.988 6.47711 103.55 9.56628L106.951 16.2908C108.01 18.3834 110.009 19.8404 112.326 20.2073L119.723 21.379C123.131 21.9189 125.696 24.7706 125.873 28.2164L126.262 35.8029C126.382 38.1355 127.611 40.2701 129.568 41.5455L135.897 45.67C138.779 47.5485 139.959 51.1837 138.729 54.3965L136.007 61.5105C135.173 63.6868 135.43 66.1299 136.695 68.0864L140.829 74.4727C142.696 77.359 142.297 81.1566 139.871 83.5924L134.518 88.9657C132.871 90.618 132.113 92.9567 132.479 95.2604L133.67 102.78C134.208 106.182 132.295 109.498 129.081 110.736L122.062 113.438C119.878 114.279 118.229 116.115 117.628 118.377L115.685 125.692C114.798 129.033 111.689 131.294 108.237 131.109L100.781 130.71C98.4347 130.585 96.1715 131.595 94.6993 133.426L89.9977 139.273C87.8258 141.974 84.0546 142.776 80.9706 141.193L74.3352 137.787C72.2414 136.713 69.7584 136.713 67.6648 137.787L61.0289 141.193C57.9455 142.776 54.1742 141.974 52.0024 139.273L47.3006 133.426C45.8284 131.595 43.5652 130.585 41.219 130.71L33.7633 131.109C30.3112 131.294 27.2024 129.033 26.315 125.692L24.3715 118.377C23.7706 116.115 22.1219 114.279 19.9376 113.438L12.9194 110.736C9.70432 109.498 7.79177 106.182 8.33058 102.78L9.52146 95.2604C9.88624 92.9567 9.12849 90.618 7.48235 88.9657L2.12909 83.5924C-0.297326 81.1566 -0.696093 77.359 1.17154 74.4727L5.30426 68.0864C6.57036 66.1299 6.82633 63.6868 5.99336 61.5105L3.27048 54.3965C2.04078 51.1837 3.22079 47.5485 6.10312 45.67L12.4318 41.5455C14.3888 40.2701 15.6175 38.1355 15.7372 35.8029L16.1266 28.2164C16.3034 24.7706 18.8686 21.9189 22.2771 21.379L29.6742 20.2073C31.9907 19.8404 33.9899 18.3834 35.0484 16.2908L38.4497 9.56628C40.0123 6.47711 43.5297 4.90954 46.8722 5.81281L54.0696 7.75789C56.3404 8.37159 58.7679 7.85405 60.5908 6.36759L66.3843 1.64329Z" fill="url(#paint0_linear_34_307)"></path> <path d="M26.58 80V79.66H29.98V68.27H20.12V79.66H23.52V80H15.36V79.66H18.76V56.54H15.36V56.2H23.52V56.54H20.12V67.93H29.98V56.54H26.58V56.2H34.74V56.54H31.34V79.66H34.74V80H26.58ZM47.0613 80V79.66H49.7813L48.2173 74.696H40.7373L39.1733 79.66H41.8933V80H36.0793V79.66H38.7993C39.7739 76.5773 40.7599 73.4153 41.7573 70.174C42.7546 66.9327 43.7406 63.7707 44.7153 60.688H45.0893L51.0053 79.66H53.7253V80H47.0613ZM44.4773 62.626L40.8393 74.356H48.1153L44.4773 62.626ZM57.6209 80V79.66H60.3409V61.3H57.6549C57.3829 61.3 57.0996 61.3227 56.8049 61.368C56.5329 61.4133 56.2723 61.5833 56.0229 61.878C55.7963 62.1727 55.6036 62.6373 55.4449 63.272C55.3089 63.884 55.2409 64.768 55.2409 65.924V68.678H54.9009V60.96H66.9029V68.678H66.5629V65.924C66.5629 64.768 66.4836 63.884 66.3249 63.272C66.1889 62.6373 65.9963 62.1727 65.7469 61.878C65.5203 61.5833 65.2596 61.4133 64.9649 61.368C64.6929 61.3227 64.4209 61.3 64.1489 61.3H61.4969V79.66H64.1829V80H57.6209ZM79.0691 80V79.66H81.7891L80.2251 74.696H72.7451L71.1811 79.66H73.9011V80H68.0871V79.66H70.8071C71.7818 76.5773 72.7678 73.4153 73.7651 70.174C74.7624 66.9327 75.7484 63.7707 76.7231 60.688H77.0971L83.0131 79.66H85.7331V80H79.0691ZM76.4851 62.626L72.8471 74.356H80.1231L76.4851 62.626ZM86.8068 80V79.66H89.4928V61.3H86.8068V60.96H93.3688V61.3H90.6488V79.66H97.3468V61.3H94.6608V60.96H101.223V61.3H98.5028V79.66H105.235V61.3H102.515V60.96H109.077V61.3H106.357V79.66H109.077V80H86.8068ZM121.137 80V79.66H123.857L122.293 74.696H114.813L113.249 79.66H115.969V80H110.155V79.66H112.875C113.85 76.5773 114.836 73.4153 115.833 70.174C116.831 66.9327 117.817 63.7707 118.791 60.688H119.165L125.081 79.66H127.801V80H121.137ZM118.553 62.626L114.915 74.356H122.191L118.553 62.626Z" fill="#1C1C1C"></path> <defs> <linearGradient id="paint0_linear_34_307" x1="94.8707" y1="-23.2546" x2="21.4435" y2="135.865" gradientUnits="userSpaceOnUse"> <stop stop-color="#FFEEB0"></stop> <stop offset="1" stop-color="#FFF4E7"></stop> </linearGradient> </defs> </svg> 