<?xml version="1.0" encoding="UTF-8"?> <svg xmlns="http://www.w3.org/2000/svg" width="131" height="131" viewBox="0 0 131 131" fill="none"> <g clip-path="url(#clip0_33_289)"> <path d="M77.2776 85.6635C112.61 146.112 18.4387 146.112 53.7225 85.6635C-0.10044 146.112 -15.1133 131.105 45.3398 77.2802C-15.1133 112.614 -15.1133 18.4394 45.3398 53.7247C-15.1133 -0.100465 -0.10044 -15.1138 53.7225 45.3415C18.3902 -15.1138 112.561 -15.1138 77.2776 45.3415C131.1 -15.1138 146.113 -0.100465 85.6603 53.7247C146.113 18.3909 146.113 112.566 85.6603 77.2802C146.113 131.105 131.08 146.112 77.2776 85.6635Z" fill="url(#paint0_linear_33_289)"></path> <path d="M49.01 77V76.58H53.21L50.774 68.768H39.098L36.662 76.58H40.862V77H32V76.58H36.2L45.356 47.18H45.818L54.974 76.58H59.174V77H49.01ZM44.936 49.952L39.224 68.348H50.648L44.936 49.952ZM77.3794 67.466C77.3794 68.866 77.2114 70.168 76.8754 71.372C76.5674 72.576 76.0914 73.626 75.4474 74.522C74.8034 75.39 74.0054 76.076 73.0534 76.58C72.1014 77.084 71.0094 77.336 69.7774 77.336C68.3774 77.336 67.1314 77.028 66.0394 76.412C64.9474 75.768 64.0234 74.9 63.2674 73.808C62.5394 72.716 61.9794 71.442 61.5874 69.986C61.1954 68.502 60.9994 66.92 60.9994 65.24C60.9994 63.56 61.1954 61.992 61.5874 60.536C61.9794 59.052 62.5394 57.764 63.2674 56.672C64.0234 55.58 64.9474 54.726 66.0394 54.11C67.1314 53.466 68.3774 53.144 69.7774 53.144C71.4294 53.144 72.8014 53.564 73.8934 54.404C74.9854 55.244 75.8254 56.392 76.4134 57.848C76.5534 57.736 76.6794 57.582 76.7914 57.386C76.9034 57.19 76.9594 56.98 76.9594 56.756V53.48H77.3794V63.014H76.9594C76.9594 61.67 76.7914 60.424 76.4554 59.276C76.1474 58.128 75.6854 57.134 75.0694 56.294C74.4814 55.454 73.7394 54.796 72.8434 54.32C71.9754 53.816 70.9534 53.564 69.7774 53.564C68.4334 53.564 67.2994 53.872 66.3754 54.488C65.4514 55.104 64.6954 55.944 64.1074 57.008C63.5474 58.072 63.1414 59.318 62.8894 60.746C62.6374 62.146 62.5114 63.644 62.5114 65.24C62.5114 66.836 62.6374 68.348 62.8894 69.776C63.1414 71.176 63.5474 72.408 64.1074 73.472C64.6954 74.536 65.4514 75.376 66.3754 75.992C67.2994 76.608 68.4334 76.916 69.7774 76.916C70.9534 76.916 71.9754 76.678 72.8434 76.202C73.7394 75.698 74.4814 75.026 75.0694 74.186C75.6854 73.346 76.1474 72.352 76.4554 71.204C76.7914 70.056 76.9594 68.81 76.9594 67.466H77.3794ZM79.0147 77V76.58H82.3747L87.1207 68.726C86.3647 68.586 85.6507 68.292 84.9787 67.844C84.3067 67.396 83.7187 66.836 83.2147 66.164C82.7107 65.492 82.3187 64.736 82.0387 63.896C81.7587 63.028 81.6187 62.104 81.6187 61.124C81.6187 60.088 81.7867 59.108 82.1227 58.184C82.4587 57.232 82.9207 56.42 83.5087 55.748C84.0967 55.048 84.7827 54.502 85.5667 54.11C86.3507 53.69 87.1907 53.48 88.0867 53.48H96.9907V53.9H93.6307V76.58H96.9907V77H88.8847V76.58H92.2027V53.9H88.0867C87.2747 53.9 86.5467 54.096 85.9027 54.488C85.2867 54.852 84.7687 55.37 84.3487 56.042C83.9287 56.686 83.6067 57.456 83.3827 58.352C83.1587 59.22 83.0467 60.144 83.0467 61.124C83.0467 62.02 83.1447 62.874 83.3407 63.686C83.5647 64.47 83.8587 65.184 84.2227 65.828C84.6147 66.472 85.0767 67.018 85.6087 67.466C86.1407 67.886 86.7427 68.166 87.4147 68.306C87.4147 68.278 87.4287 68.25 87.4567 68.222C87.4847 68.194 87.4987 68.166 87.4987 68.138C87.8067 67.746 88.1007 67.382 88.3807 67.046C88.6887 66.682 89.0667 66.388 89.5147 66.164C89.9627 65.94 90.3827 65.828 90.7747 65.828C91.1947 65.828 91.4747 65.94 91.6147 66.164C91.7827 66.416 91.8107 66.724 91.6987 67.088C91.5867 67.424 91.2927 67.746 90.8167 68.054C90.4527 68.278 90.0187 68.46 89.5147 68.6C89.0387 68.712 88.5627 68.768 88.0867 68.768H87.7087L84.2227 76.58H87.5827V77H79.0147ZM88.0867 68.348C88.5347 68.348 88.9827 68.306 89.4307 68.222C89.8787 68.11 90.2567 67.942 90.5647 67.718C90.8447 67.522 91.0547 67.298 91.1947 67.046C91.3347 66.794 91.3627 66.598 91.2787 66.458C91.1667 66.318 90.9427 66.262 90.6067 66.29C90.2987 66.29 89.9907 66.374 89.6827 66.542C89.3187 66.766 88.9687 67.074 88.6327 67.466C88.3247 67.83 88.0867 68.124 87.9187 68.348H88.0867Z" fill="#1C1C1C"></path> </g> <defs> <linearGradient id="paint0_linear_33_289" x1="65.5" y1="1.6375e-05" x2="65.5" y2="131" gradientUnits="userSpaceOnUse"> <stop stop-color="#A7B5FF"></stop> <stop offset="1" stop-color="#F3ACFF"></stop> </linearGradient> <clipPath id="clip0_33_289"> <rect width="131" height="131" fill="white"></rect> </clipPath> </defs> </svg> 