<?xml version="1.0" encoding="UTF-8"?> <svg xmlns="http://www.w3.org/2000/svg" width="200" height="102" viewBox="0 0 200 102" fill="none"> <path d="M200 50.5882C200 50.5882 155.228 101.176 100 101.176C44.7715 101.176 0 50.5882 0 50.5882C0 50.5882 44.7715 0 100 0C155.228 0 200 50.5882 200 50.5882Z" fill="url(#paint0_linear_33_288)"></path> <path d="M53.92 31.33H49.62V30.9H58.779V31.33H54.479L47.857 42.725L55.855 60.57H60.155V61H49.577V60.57H53.877L46.739 44.66L42.74 51.54V60.57H47.04V61H36.72V60.57H41.02V31.33H36.72V30.9H47.04V31.33H42.74V50.637L53.92 31.33ZM79.4022 51.239C79.4022 52.6723 79.2302 54.0053 78.8862 55.238C78.5709 56.4707 78.0835 57.5457 77.4242 58.463C76.7649 59.3517 75.9479 60.054 74.9732 60.57C73.9985 61.086 72.8805 61.344 71.6192 61.344C70.1859 61.344 68.9102 61.0287 67.7922 60.398C66.6742 59.7387 65.7282 58.85 64.9542 57.732C64.2089 56.614 63.6355 55.3097 63.2342 53.819C62.8329 52.2997 62.6322 50.68 62.6322 48.96C62.6322 47.24 62.8329 45.6347 63.2342 44.144C63.6355 42.6247 64.2089 41.306 64.9542 40.188C65.7282 39.07 66.6742 38.1957 67.7922 37.565C68.9102 36.9057 70.1859 36.576 71.6192 36.576C73.3105 36.576 74.7152 37.006 75.8332 37.866C76.9512 38.726 77.8112 39.9013 78.4132 41.392C78.5565 41.2773 78.6855 41.1197 78.8002 40.919C78.9149 40.7183 78.9722 40.5033 78.9722 40.274V36.92H79.4022V46.681H78.9722C78.9722 45.305 78.8002 44.0293 78.4562 42.854C78.1409 41.6787 77.6679 40.661 77.0372 39.801C76.4352 38.941 75.6755 38.2673 74.7582 37.78C73.8695 37.264 72.8232 37.006 71.6192 37.006C70.2432 37.006 69.0822 37.3213 68.1362 37.952C67.1902 38.5827 66.4162 39.4427 65.8142 40.532C65.2409 41.6213 64.8252 42.897 64.5672 44.359C64.3092 45.7923 64.1802 47.326 64.1802 48.96C64.1802 50.594 64.3092 52.142 64.5672 53.604C64.8252 55.0373 65.2409 56.2987 65.8142 57.388C66.4162 58.4773 67.1902 59.3373 68.1362 59.968C69.0822 60.5987 70.2432 60.914 71.6192 60.914C72.8232 60.914 73.8695 60.6703 74.7582 60.183C75.6755 59.667 76.4352 58.979 77.0372 58.119C77.6679 57.259 78.1409 56.2413 78.4562 55.066C78.8002 53.8907 78.9722 52.615 78.9722 51.239H79.4022ZM81.9795 61V60.57H85.3765V37.35H81.9795V36.92H90.2785V37.35H86.8385V48.745H91.2245C91.2532 47.0823 91.4682 45.52 91.8695 44.058C92.2995 42.5673 92.8872 41.2773 93.6325 40.188C94.3778 39.07 95.2952 38.1957 96.3845 37.565C97.5025 36.9057 98.7638 36.576 100.169 36.576C101.602 36.576 102.878 36.9057 103.996 37.565C105.114 38.1957 106.045 39.07 106.791 40.188C107.565 41.306 108.138 42.6247 108.511 44.144C108.912 45.6347 109.113 47.24 109.113 48.96C109.113 50.68 108.912 52.2997 108.511 53.819C108.138 55.3097 107.565 56.614 106.791 57.732C106.045 58.85 105.114 59.7387 103.996 60.398C102.878 61.0287 101.602 61.344 100.169 61.344C98.7638 61.344 97.5025 61.0287 96.3845 60.398C95.2952 59.7387 94.3778 58.8643 93.6325 57.775C92.8872 56.657 92.2995 55.367 91.8695 53.905C91.4682 52.4143 91.2532 50.8377 91.2245 49.175H86.8385V60.57H90.2785V61H81.9795ZM100.169 60.914C101.545 60.914 102.706 60.5987 103.652 59.968C104.598 59.3373 105.357 58.4773 105.931 57.388C106.533 56.2987 106.963 55.0373 107.221 53.604C107.507 52.142 107.651 50.594 107.651 48.96C107.651 47.326 107.507 45.7923 107.221 44.359C106.963 42.897 106.533 41.6213 105.931 40.532C105.357 39.4427 104.598 38.5827 103.652 37.952C102.706 37.3213 101.545 37.006 100.169 37.006C98.7925 37.006 97.6315 37.3213 96.6855 37.952C95.7395 38.5827 94.9655 39.4427 94.3635 40.532C93.7902 41.6213 93.3602 42.897 93.0735 44.359C92.8155 45.7923 92.6865 47.326 92.6865 48.96C92.6865 50.594 92.8155 52.142 93.0735 53.604C93.3602 55.0373 93.7902 56.2987 94.3635 57.388C94.9655 58.4773 95.7395 59.3373 96.6855 59.968C97.6315 60.5987 98.7925 60.914 100.169 60.914ZM112.424 61V60.57H115.821V37.35H112.424V36.92H120.723V37.35H117.283V60.57H125.754V37.35H122.357V36.92H130.656V37.35H127.216V60.57H135.73V37.35H132.29V36.92H140.589V37.35H137.149V60.57H140.589V61H112.424ZM155.842 61V60.57H159.282L157.304 54.292H147.844L145.866 60.57H149.306V61H141.953V60.57H145.393C146.626 56.6713 147.873 52.6723 149.134 48.573C150.395 44.4737 151.642 40.4747 152.875 36.576H153.348L160.83 60.57H164.27V61H155.842ZM152.574 39.027L147.973 53.862H157.175L152.574 39.027Z" fill="#1C1C1C"></path> <defs> <linearGradient id="paint0_linear_33_288" x1="177" y1="-8.11084e-06" x2="124.191" y2="115.777" gradientUnits="userSpaceOnUse"> <stop stop-color="#B0B9FF"></stop> <stop offset="1" stop-color="#E7E9FF"></stop> </linearGradient> </defs> </svg> 