<?xml version="1.0" encoding="UTF-8"?> <svg xmlns="http://www.w3.org/2000/svg" width="173" height="173" viewBox="0 0 173 173" fill="none"> <path d="M137.019 173C113.702 133.076 59.2986 133.076 35.9818 173C48.6011 133.076 39.9259 124.402 0 137.02C39.9259 113.704 39.9259 59.3047 0 35.9891C39.9259 48.5985 48.6011 39.9238 35.9818 0C59.2986 39.9238 113.702 39.9238 137.019 0C124.408 39.9238 133.084 48.5985 173 35.9891C133.084 59.3047 133.084 113.704 173 137.02C133.084 124.402 124.408 133.076 137.019 173Z" fill="url(#paint0_linear_32_287)"></path> <path d="M68.415 97V96.57H72.715L70.221 88.572H58.267L55.773 96.57H60.073V97H51V96.57H55.3L64.674 66.47H65.147L74.521 96.57H78.821V97H68.415ZM64.244 69.308L58.396 88.142H70.092L64.244 69.308ZM91.4828 97V96.57H94.9228V85.175H85.0758V96.57H88.5158V97H80.1738V96.57H83.6138V73.35H80.1738V72.92H88.5158V73.35H85.0758V84.745H94.9228V73.35H91.4828V72.92H99.8248V73.35H96.3848V96.57H99.8248V97H91.4828ZM101.654 97V96.57H105.094L109.953 88.529C109.179 88.3857 108.448 88.0847 107.76 87.626C107.072 87.1673 106.47 86.594 105.954 85.906C105.438 85.218 105.036 84.444 104.75 83.584C104.463 82.6953 104.32 81.7493 104.32 80.746C104.32 79.6853 104.492 78.682 104.836 77.736C105.18 76.7613 105.653 75.93 106.255 75.242C106.857 74.5253 107.559 73.9663 108.362 73.565C109.164 73.135 110.024 72.92 110.942 72.92H120.058V73.35H116.618V96.57H120.058V97H111.759V96.57H115.156V73.35H110.942C110.11 73.35 109.365 73.5507 108.706 73.952C108.075 74.3247 107.545 74.855 107.115 75.543C106.685 76.2023 106.355 76.9907 106.126 77.908C105.896 78.7967 105.782 79.7427 105.782 80.746C105.782 81.6633 105.882 82.5377 106.083 83.369C106.312 84.1717 106.613 84.9027 106.986 85.562C107.387 86.2213 107.86 86.7803 108.405 87.239C108.949 87.669 109.566 87.9557 110.254 88.099C110.254 88.0703 110.268 88.0417 110.297 88.013C110.325 87.9843 110.34 87.9557 110.34 87.927C110.655 87.5257 110.956 87.153 111.243 86.809C111.558 86.4363 111.945 86.1353 112.404 85.906C112.862 85.6767 113.292 85.562 113.694 85.562C114.124 85.562 114.41 85.6767 114.554 85.906C114.726 86.164 114.754 86.4793 114.64 86.852C114.525 87.196 114.224 87.5257 113.737 87.841C113.364 88.0703 112.92 88.2567 112.404 88.4C111.916 88.5147 111.429 88.572 110.942 88.572H110.555L106.986 96.57H110.426V97H101.654ZM110.942 88.142C111.4 88.142 111.859 88.099 112.318 88.013C112.776 87.8983 113.163 87.7263 113.479 87.497C113.765 87.2963 113.98 87.067 114.124 86.809C114.267 86.551 114.296 86.3503 114.21 86.207C114.095 86.0637 113.866 86.0063 113.522 86.035C113.206 86.035 112.891 86.121 112.576 86.293C112.203 86.5223 111.845 86.8377 111.501 87.239C111.185 87.6117 110.942 87.9127 110.77 88.142H110.942Z" fill="#1C1C1C"></path> <defs> <linearGradient id="paint0_linear_32_287" x1="17.7325" y1="13.84" x2="86.5" y2="173" gradientUnits="userSpaceOnUse"> <stop stop-color="#ACAAFF"></stop> <stop offset="1" stop-color="#C0E8FF"></stop> </linearGradient> </defs> </svg> 