<svg width="1280" height="720" viewBox="0 0 1280 720" fill="none" xmlns="http://www.w3.org/2000/svg">
<rect width="1280" height="720" fill="#FFF2DB"/>
<path d="M670.027 300.39C669.463 289.956 661.285 282.201 652.543 275.292C661.849 268.383 666.22 261.192 666.502 252.732C666.925 240.465 656.491 228.48 638.161 230.313C624.202 231.723 611.089 243.144 615.178 260.628C616.87 267.678 620.677 273.177 625.33 277.689C612.217 285.726 607.846 292.917 607.846 304.338C607.987 317.028 618.562 331.41 638.866 331.128C655.363 330.705 671.014 320.694 670.027 300.39ZM640.276 240.747C646.762 240.042 653.248 246.528 650.851 254.142C649.018 259.923 645.211 263.448 641.545 266.691C637.174 263.166 633.79 259.641 632.098 255.834C628.432 247.233 633.367 241.452 640.276 240.747ZM638.866 317.592C630.547 318.015 625.471 310.119 626.458 302.928C627.304 296.724 631.957 291.648 637.879 287.841C644.506 292.635 650.146 297.147 650.992 302.787C651.979 311.247 646.762 317.31 638.866 317.592Z" fill="#9C5FFF"/>
<path d="M557.815 362.736C552.175 363.441 542.305 363.3 535.678 362.736C525.667 383.745 520.45 401.652 513.541 417.867C505.363 397.422 498.595 375.708 485.059 358.788C477.445 349.341 460.243 350.469 453.052 357.519C464.332 360.903 468.703 368.94 469.831 381.771C470.818 393.474 469.972 439.722 466.447 461.577C474.202 460.308 482.239 460.167 492.109 461.436C488.584 449.733 489.007 419.559 489.007 395.448C494.365 407.997 499.582 424.635 503.812 442.542C504.094 443.247 518.194 442.683 522.424 442.683C523.552 429.993 529.897 408.138 536.947 395.73C537.088 421.815 535.96 454.527 534.127 462.141C539.908 460.59 553.585 459.744 559.507 461.577C557.392 452.412 555.277 374.016 557.815 362.736ZM623.872 409.689C618.091 410.394 608.503 410.253 602.017 409.689C602.722 415.893 602.581 425.904 602.44 435.915C601.312 443.67 598.069 450.015 593.275 450.156C584.251 450.72 581.854 436.761 582.136 427.878C582.841 398.832 602.581 401.652 606.952 407.292C608.644 398.409 599.902 389.385 588.34 390.795C576.919 392.064 561.691 400.806 561.691 427.878C561.691 457.206 577.201 463.692 585.52 463.692C594.544 463.692 599.761 459.603 603.004 453.822C603.286 457.77 603.709 461.013 604.555 463.692C609.49 480.048 628.243 475.677 635.716 468.768C617.245 465.525 622.321 421.815 623.872 409.689ZM692.753 403.626C685.844 386.142 662.156 382.617 653.555 405.318C653.414 402.639 653.696 396.435 655.106 388.962C646.646 391.077 637.481 390.09 630.713 388.962C637.058 415.188 632.546 485.97 630.008 502.326C635.93 501.339 647.21 500.916 654.965 501.762C652.568 494.148 652.991 457.629 653.273 429.288C656.234 399.396 671.18 404.049 673.718 418.995C676.256 434.082 671.039 459.039 654.965 457.347C656.939 462.423 680.909 471.588 691.343 452.553C697.547 441.273 697.829 416.598 692.753 403.626ZM752.676 391.359C736.602 390.513 703.044 396.576 690.918 383.463C688.662 403.485 699.801 408.279 710.235 409.125C711.363 409.266 712.491 409.266 713.619 409.407C714.042 427.878 713.196 454.668 710.94 463.269C716.862 461.859 729.834 461.718 735.756 463.551C734.205 456.783 732.513 427.737 732.936 408.984C740.268 408.702 746.895 408.984 752.253 411.24C751.548 403.062 751.125 397.281 752.676 391.359ZM819.262 409.689C813.481 410.394 803.893 410.253 797.407 409.689C798.112 415.893 797.971 425.904 797.83 435.915C796.702 443.67 793.459 450.015 788.665 450.156C779.641 450.72 777.244 436.761 777.526 427.878C778.231 398.832 797.971 401.652 802.342 407.292C804.034 398.409 795.292 389.385 783.73 390.795C772.309 392.064 757.081 400.806 757.081 427.878C757.081 457.206 772.591 463.692 780.91 463.692C789.934 463.692 795.151 459.603 798.394 453.822C798.676 457.77 799.099 461.013 799.945 463.692C804.88 480.048 823.633 475.677 831.106 468.768C812.635 465.525 817.711 421.815 819.262 409.689Z" fill="#9C5FFF"/>
</svg>
