<?xml version="1.0" encoding="UTF-8"?> <svg xmlns="http://www.w3.org/2000/svg" width="144" height="72" viewBox="0 0 144 72" fill="none"> <path fill-rule="evenodd" clip-rule="evenodd" d="M144 72C144 32.2355 111.764 0 72 0C32.2355 0 0 32.2355 0 72H144Z" fill="url(#paint0_linear_34_312)"></path> <path d="M41.36 56V55.66H44.76V32.54H41.36V32.2H49.52V32.54H46.12V43.93H50.54C50.54 42.2753 50.7327 40.7113 51.118 39.238C51.526 37.7647 52.104 36.484 52.852 35.396C53.6227 34.308 54.552 33.4467 55.64 32.812C56.728 32.1773 57.9747 31.86 59.38 31.86C60.7853 31.86 62.032 32.1887 63.12 32.846C64.2307 33.4807 65.16 34.3533 65.908 35.464C66.656 36.552 67.2227 37.844 67.608 39.34C68.016 40.8133 68.22 42.4 68.22 44.1C68.22 45.8 68.016 47.398 67.608 48.894C67.2227 50.3673 66.656 51.6593 65.908 52.77C65.16 53.858 64.2307 54.7307 63.12 55.388C62.032 56.0227 60.7853 56.34 59.38 56.34C57.9747 56.34 56.728 56.0227 55.64 55.388C54.552 54.7533 53.6227 53.892 52.852 52.804C52.104 51.716 51.526 50.4467 51.118 48.996C50.7327 47.5227 50.54 45.9473 50.54 44.27H46.12V55.66H49.52V56H41.36ZM59.38 56C60.74 56 61.896 55.694 62.848 55.082C63.8 54.4473 64.5707 53.5973 65.16 52.532C65.7493 51.444 66.18 50.1747 66.452 48.724C66.724 47.2733 66.86 45.732 66.86 44.1C66.86 42.468 66.724 40.9267 66.452 39.476C66.18 38.0253 65.7493 36.7673 65.16 35.702C64.5707 34.614 63.8 33.764 62.848 33.152C61.896 32.5173 60.74 32.2 59.38 32.2C58.02 32.2 56.864 32.5173 55.912 33.152C54.96 33.764 54.1893 34.614 53.6 35.702C53.0107 36.7673 52.58 38.0253 52.308 39.476C52.036 40.9267 51.9 42.468 51.9 44.1C51.9 45.732 52.036 47.2733 52.308 48.724C52.58 50.1747 53.0107 51.444 53.6 52.532C54.1893 53.5973 54.96 54.4473 55.912 55.082C56.864 55.694 58.02 56 59.38 56ZM71.374 55.932C71.986 55.932 72.5074 55.4673 72.938 54.538C73.3914 53.586 73.754 52.294 74.026 50.662C74.3207 49.0073 74.536 47.0693 74.672 44.848C74.8307 42.6267 74.91 40.2353 74.91 37.674V37.3H72.19V36.96H85.314V37.3H82.594V55.66H85.314V56H78.718V55.66H81.438V37.3H75.25V37.674C75.25 40.2807 75.1707 42.7173 75.012 44.984C74.876 47.228 74.6494 49.1887 74.332 50.866C74.0147 52.5433 73.618 53.8693 73.142 54.844C72.666 55.796 72.0994 56.272 71.442 56.272C71.2607 56.272 71.0114 56.2153 70.694 56.102C70.3767 56.0113 70.1274 55.8753 69.946 55.694L70.116 55.388C70.3427 55.6147 70.5694 55.762 70.796 55.83C71.0454 55.898 71.238 55.932 71.374 55.932ZM86.792 56V55.66H89.512L93.354 49.302C92.742 49.1887 92.164 48.9507 91.62 48.588C91.076 48.2253 90.6 47.772 90.192 47.228C89.784 46.684 89.4666 46.072 89.24 45.392C89.0133 44.6893 88.9 43.9413 88.9 43.148C88.9 42.3093 89.036 41.516 89.308 40.768C89.58 39.9973 89.954 39.34 90.43 38.796C90.906 38.2293 91.4613 37.7873 92.096 37.47C92.7306 37.13 93.4106 36.96 94.136 36.96H101.344V37.3H98.624V55.66H101.344V56H94.782V55.66H97.468V37.3H94.136C93.4786 37.3 92.8893 37.4587 92.368 37.776C91.8693 38.0707 91.45 38.49 91.11 39.034C90.77 39.5553 90.5093 40.1787 90.328 40.904C90.1466 41.6067 90.056 42.3547 90.056 43.148C90.056 43.8733 90.1353 44.5647 90.294 45.222C90.4753 45.8567 90.7133 46.4347 91.008 46.956C91.3253 47.4773 91.6993 47.9193 92.13 48.282C92.5606 48.622 93.048 48.8487 93.592 48.962C93.592 48.9393 93.6033 48.9167 93.626 48.894C93.6486 48.8713 93.66 48.8487 93.66 48.826C93.9093 48.5087 94.1473 48.214 94.374 47.942C94.6233 47.6473 94.9293 47.4093 95.292 47.228C95.6546 47.0467 95.9946 46.956 96.312 46.956C96.652 46.956 96.8786 47.0467 96.992 47.228C97.128 47.432 97.1506 47.6813 97.06 47.976C96.9693 48.248 96.7313 48.5087 96.346 48.758C96.0513 48.9393 95.7 49.0867 95.292 49.2C94.9066 49.2907 94.5213 49.336 94.136 49.336H93.83L91.008 55.66H93.728V56H86.792ZM94.136 48.996C94.4986 48.996 94.8613 48.962 95.224 48.894C95.5866 48.8033 95.8926 48.6673 96.142 48.486C96.3686 48.3273 96.5386 48.146 96.652 47.942C96.7653 47.738 96.788 47.5793 96.72 47.466C96.6293 47.3527 96.448 47.3073 96.176 47.33C95.9266 47.33 95.6773 47.398 95.428 47.534C95.1333 47.7153 94.85 47.9647 94.578 48.282C94.3286 48.5767 94.136 48.8147 94 48.996H94.136Z" fill="#1C1C1C"></path> <defs> <linearGradient id="paint0_linear_34_312" x1="-35.5" y1="-110" x2="153" y2="90" gradientUnits="userSpaceOnUse"> <stop stop-color="#A8A0FF"></stop> <stop offset="1" stop-color="#FFF5F1"></stop> </linearGradient> </defs> </svg> 