<?xml version="1.0" encoding="UTF-8"?> <svg xmlns="http://www.w3.org/2000/svg" width="185" height="186" viewBox="0 0 185 186" fill="none"> <g clip-path="url(#clip0_10_21)"> <path d="M123.32 174.782C100.49 177.007 97.8199 149.609 74.9901 151.834C48.7135 154.395 12.9825 150.205 10.4208 123.921C8.1958 101.092 35.5858 98.4224 33.3609 75.5939C30.801 49.3285 34.9903 13.5898 61.2765 11.0279C84.1066 8.80283 86.7768 36.2009 109.606 33.9759C135.874 31.4158 171.614 35.6045 174.176 61.8892C176.401 84.7182 149.001 87.3886 151.226 110.217C153.781 136.532 149.597 172.221 123.32 174.782Z" fill="url(#paint0_linear_10_21)"></path> </g> <path d="M50.064 104C51.0387 104 51.87 103.255 52.558 101.764C53.2747 100.273 53.8623 98.2237 54.321 95.615C54.7797 93.0063 55.1237 89.939 55.353 86.413C55.5823 82.887 55.697 79.0743 55.697 74.975V74.33H51.397V73.9H72.08V74.33H67.78V103.57H72.08V104H61.76V103.57H66.06V74.33H56.127V74.975C56.127 79.0743 55.998 82.9157 55.74 86.499C55.5107 90.0823 55.1523 93.207 54.665 95.873C54.1777 98.5103 53.5613 100.603 52.816 102.151C52.0707 103.67 51.182 104.43 50.15 104.43C49.8347 104.43 49.4333 104.358 48.946 104.215C48.4873 104.072 48.1147 103.842 47.828 103.527L48.043 103.183C48.3583 103.498 48.7167 103.713 49.118 103.828C49.5193 103.943 49.8347 104 50.064 104ZM75.1162 104V103.57H78.5562V80.35H75.1162V79.92H89.9512V89.681H89.5212V86.198C89.5212 84.736 89.4209 83.618 89.2202 82.844C89.0482 82.0413 88.8045 81.4537 88.4892 81.081C88.2025 80.7083 87.8729 80.4933 87.5002 80.436C87.1562 80.3787 86.8122 80.35 86.4682 80.35H80.0182V91.745H86.5112V92.175H80.0182V103.57H86.4682C86.8122 103.57 87.1562 103.541 87.5002 103.484C87.8729 103.427 88.2025 103.212 88.4892 102.839C88.8045 102.466 89.0482 101.893 89.2202 101.119C89.4209 100.316 89.5212 99.184 89.5212 97.722V94.239H89.9512V104H75.1162ZM104.314 104V103.57H107.754V92.175H97.9069V103.57H101.347V104H93.0049V103.57H96.4449V80.35H93.0049V79.92H101.347V80.35H97.9069V91.745H107.754V80.35H104.314V79.92H112.656V80.35H109.216V103.57H112.656V104H104.314ZM127.858 104V103.57H131.298L129.32 97.292H119.86L117.882 103.57H121.322V104H113.969V103.57H117.409C118.641 99.6713 119.888 95.6723 121.15 91.573C122.411 87.4737 123.658 83.4747 124.891 79.576H125.364L132.846 103.57H136.286V104H127.858ZM124.59 82.027L119.989 96.862H129.191L124.59 82.027Z" fill="#1C1C1C"></path> <defs> <linearGradient id="paint0_linear_10_21" x1="84.1015" y1="8.80332" x2="100.495" y2="177.006" gradientUnits="userSpaceOnUse"> <stop stop-color="#FFADAD"></stop> <stop offset="1" stop-color="#FFEDBD"></stop> </linearGradient> <clipPath id="clip0_10_21"> <rect width="169" height="169" fill="white" transform="translate(0 17.0001) rotate(-5.56661)"></rect> </clipPath> </defs> </svg> 