<?xml version="1.0" encoding="UTF-8"?> <svg xmlns="http://www.w3.org/2000/svg" width="93" height="130" viewBox="0 0 93 130" fill="none"> <path d="M93 83.1421C93 109.021 72.1813 130 46.5 130C20.8188 130 0 109.021 0 83.1421C0 58.6465 23.8075 29.1159 43.2534 1.69909C44.8474 -0.548339 48.186 -0.570876 49.8042 1.65921C69.9832 29.4684 93 58.6146 93 83.1421Z" fill="url(#paint0_linear_34_325)"></path> <path d="M26.96 60.54H23.56V60.2H30.802V60.54H27.402L22.166 69.55L28.49 83.66H31.89V84H23.526V83.66H26.926L21.282 71.08L18.12 76.52V83.66H21.52V84H13.36V83.66H16.76V60.54H13.36V60.2H21.52V60.54H18.12V75.806L26.96 60.54ZM43.3347 84V83.66H46.0547L44.4907 78.696H37.0107L35.4467 83.66H38.1667V84H32.3527V83.66H35.0727C36.0474 80.5773 37.0334 77.4153 38.0307 74.174C39.0281 70.9327 40.0141 67.7707 40.9887 64.688H41.3627L47.2787 83.66H49.9987V84H43.3347ZM40.7507 66.626L37.1127 78.356H44.3887L40.7507 66.626ZM53.8944 84V83.66H56.6144V65.3H53.9284C53.6564 65.3 53.373 65.3227 53.0784 65.368C52.8064 65.4133 52.5457 65.5833 52.2964 65.878C52.0697 66.1727 51.877 66.6373 51.7184 67.272C51.5824 67.884 51.5144 68.768 51.5144 69.924V72.678H51.1744V64.96H63.1764V72.678H62.8364V69.924C62.8364 68.768 62.757 67.884 62.5984 67.272C62.4624 66.6373 62.2697 66.1727 62.0204 65.878C61.7937 65.5833 61.533 65.4133 61.2384 65.368C60.9664 65.3227 60.6944 65.3 60.4224 65.3H57.7704V83.66H60.4564V84H53.8944ZM64.7685 84V83.66H67.4885L71.3305 77.302C70.7185 77.1887 70.1405 76.9507 69.5965 76.588C69.0525 76.2253 68.5765 75.772 68.1685 75.228C67.7605 74.684 67.4432 74.072 67.2165 73.392C66.9899 72.6893 66.8765 71.9413 66.8765 71.148C66.8765 70.3093 67.0125 69.516 67.2845 68.768C67.5565 67.9973 67.9305 67.34 68.4065 66.796C68.8825 66.2293 69.4379 65.7873 70.0725 65.47C70.7072 65.13 71.3872 64.96 72.1125 64.96H79.3205V65.3H76.6005V83.66H79.3205V84H72.7585V83.66H75.4445V65.3H72.1125C71.4552 65.3 70.8659 65.4587 70.3445 65.776C69.8459 66.0707 69.4265 66.49 69.0865 67.034C68.7465 67.5553 68.4859 68.1787 68.3045 68.904C68.1232 69.6067 68.0325 70.3547 68.0325 71.148C68.0325 71.8733 68.1119 72.5647 68.2705 73.222C68.4519 73.8567 68.6899 74.4347 68.9845 74.956C69.3019 75.4773 69.6759 75.9193 70.1065 76.282C70.5372 76.622 71.0245 76.8487 71.5685 76.962C71.5685 76.9393 71.5799 76.9167 71.6025 76.894C71.6252 76.8713 71.6365 76.8487 71.6365 76.826C71.8859 76.5087 72.1239 76.214 72.3505 75.942C72.5999 75.6473 72.9059 75.4093 73.2685 75.228C73.6312 75.0467 73.9712 74.956 74.2885 74.956C74.6285 74.956 74.8552 75.0467 74.9685 75.228C75.1045 75.432 75.1272 75.6813 75.0365 75.976C74.9459 76.248 74.7079 76.5087 74.3225 76.758C74.0279 76.9393 73.6765 77.0867 73.2685 77.2C72.8832 77.2907 72.4979 77.336 72.1125 77.336H71.8065L68.9845 83.66H71.7045V84H64.7685ZM72.1125 76.996C72.4752 76.996 72.8379 76.962 73.2005 76.894C73.5632 76.8033 73.8692 76.6673 74.1185 76.486C74.3452 76.3273 74.5152 76.146 74.6285 75.942C74.7419 75.738 74.7645 75.5793 74.6965 75.466C74.6059 75.3527 74.4245 75.3073 74.1525 75.33C73.9032 75.33 73.6539 75.398 73.4045 75.534C73.1099 75.7153 72.8265 75.9647 72.5545 76.282C72.3052 76.5767 72.1125 76.8147 71.9765 76.996H72.1125Z" fill="#1C1C1C"></path> <defs> <linearGradient id="paint0_linear_34_325" x1="9.5325" y1="10.4" x2="72.3403" y2="114.393" gradientUnits="userSpaceOnUse"> <stop stop-color="#ACAAFF"></stop> <stop offset="1" stop-color="#C0E8FF"></stop> </linearGradient> </defs> </svg> 