<?xml version="1.0" encoding="UTF-8"?> <svg xmlns="http://www.w3.org/2000/svg" width="208" height="215" viewBox="0 0 208 215" fill="none"> <path d="M70.9401 50.2649C48.9212 12.1271 103.965 52.4299 103.983 74.437C103.982 52.4201 159.035 12.1134 137.012 50.2591C159.035 12.1134 151.673 79.9691 132.608 90.9765C151.673 79.9691 214.104 107.496 170.072 107.52C214.118 107.521 151.685 135.045 132.619 124.036C151.685 135.045 159.05 202.875 137.031 164.738C159.05 202.875 103.998 162.577 103.988 140.566C103.99 162.582 48.936 202.889 70.9589 164.743C48.936 202.889 56.2985 135.034 75.3716 124.022C56.2985 135.034 -6.13305 107.507 37.899 107.482C-6.14764 107.481 56.2859 79.9572 75.3522 90.9669C56.2846 79.9355 48.9212 12.1271 70.9401 50.2649Z" fill="url(#paint0_linear_27_279)"></path> <path d="M78.32 117V116.64H81.92V104.58H71.48V116.64H75.08V117H66.44V116.64H70.04V92.1601H66.44V91.8001H75.08V92.1601H71.48V104.22H81.92V92.1601H78.32V91.8001H86.96V92.1601H83.36V116.64H86.96V117H78.32ZM100.006 117V116.64H102.886L101.23 111.384H93.3101L91.6541 116.64H94.5341V117H88.3781V116.64H91.2581C92.2901 113.376 93.3341 110.028 94.3901 106.596C95.4461 103.164 96.4901 99.8161 97.5221 96.5521H97.9181L104.182 116.64H107.062V117H100.006ZM97.2701 98.6041L93.4181 111.024H101.122L97.2701 98.6041ZM110.791 117C110.503 117 110.203 117.024 109.891 117.072C109.579 117.12 109.303 117.3 109.063 117.612C108.823 117.924 108.619 118.416 108.451 119.088C108.307 119.76 108.235 120.708 108.235 121.932V122.724H107.875V116.64H109.279C109.927 116.64 110.479 116.148 110.935 115.164C111.415 114.18 111.799 112.836 112.087 111.132C112.399 109.428 112.627 107.412 112.771 105.084C112.939 102.756 113.023 100.26 113.023 97.5961V97.2001H110.143V96.8401H124.039V97.2001H121.159V116.64H124.039V122.724H123.679V121.932C123.679 120.708 123.595 119.76 123.427 119.088C123.283 118.416 123.079 117.924 122.815 117.612C122.575 117.3 122.299 117.12 121.987 117.072C121.699 117.024 121.411 117 121.123 117H110.791ZM113.383 97.5961C113.383 99.9721 113.311 102.216 113.167 104.328C113.047 106.44 112.855 108.336 112.591 110.016C112.351 111.696 112.039 113.112 111.655 114.264C111.271 115.392 110.815 116.184 110.287 116.64H119.935V97.2001H113.383V97.5961ZM125.584 117V116.64H128.464L132.532 109.908C131.884 109.788 131.272 109.536 130.696 109.152C130.12 108.768 129.616 108.288 129.184 107.712C128.752 107.136 128.416 106.488 128.176 105.768C127.936 105.024 127.816 104.232 127.816 103.392C127.816 102.504 127.96 101.664 128.248 100.872C128.536 100.056 128.932 99.3601 129.436 98.7841C129.94 98.1841 130.528 97.7161 131.2 97.3801C131.872 97.0201 132.592 96.8401 133.36 96.8401H140.992V97.2001H138.112V116.64H140.992V117H134.044V116.64H136.888V97.2001H133.36C132.664 97.2001 132.04 97.3681 131.488 97.7041C130.96 98.0161 130.516 98.4601 130.156 99.0361C129.796 99.5881 129.52 100.248 129.328 101.016C129.136 101.76 129.04 102.552 129.04 103.392C129.04 104.16 129.124 104.892 129.292 105.588C129.484 106.26 129.736 106.872 130.048 107.424C130.384 107.976 130.78 108.444 131.236 108.828C131.692 109.188 132.208 109.428 132.784 109.548C132.784 109.524 132.796 109.5 132.82 109.476C132.844 109.452 132.856 109.428 132.856 109.404C133.12 109.068 133.372 108.756 133.612 108.468C133.876 108.156 134.2 107.904 134.584 107.712C134.968 107.52 135.328 107.424 135.664 107.424C136.024 107.424 136.264 107.52 136.384 107.712C136.528 107.928 136.552 108.192 136.456 108.504C136.36 108.792 136.108 109.068 135.7 109.332C135.388 109.524 135.016 109.68 134.584 109.8C134.176 109.896 133.768 109.944 133.36 109.944H133.036L130.048 116.64H132.928V117H125.584ZM133.36 109.584C133.744 109.584 134.128 109.548 134.512 109.476C134.896 109.38 135.22 109.236 135.484 109.044C135.724 108.876 135.904 108.684 136.024 108.468C136.144 108.252 136.168 108.084 136.096 107.964C136 107.844 135.808 107.796 135.52 107.82C135.256 107.82 134.992 107.892 134.728 108.036C134.416 108.228 134.116 108.492 133.828 108.828C133.564 109.14 133.36 109.392 133.216 109.584H133.36Z" fill="#1C1C1C"></path> <defs> <linearGradient id="paint0_linear_27_279" x1="112.619" y1="38.5215" x2="74.8156" y2="157.282" gradientUnits="userSpaceOnUse"> <stop offset="0.0509862" stop-color="#FFB6E1"></stop> <stop offset="1" stop-color="#FBE3EA"></stop> </linearGradient> </defs> </svg> 