<?xml version="1.0" encoding="UTF-8"?> <svg xmlns="http://www.w3.org/2000/svg" width="476" height="710" viewBox="0 0 476 710" fill="none"> <g opacity="0.8"> <path d="M440.072 262.565C432.143 259.862 432.16 253.39 433.667 249.304C439.182 234.275 432.16 220.347 431.132 205.935C429.334 180.648 417.259 160.431 397.974 144.184C391.038 138.33 388.743 130.657 385.472 122.967C381.738 114.193 377.936 104.485 371.222 98.1135C362.008 89.373 350.995 80.7994 339.092 76.7294C309.017 66.4209 278.222 56.5962 245.578 66.0206C237.255 68.4226 234.035 64.3859 232.613 58.2976C224.015 57.2968 215.983 56.5796 208.053 55.2285C206.957 55.045 205.827 51.809 205.707 49.9241C204.131 26.9053 201.853 24.1364 178.492 17.2141C176.916 16.747 175.118 15.9964 174.159 14.8121C165.749 4.37024 154.565 4.8206 142.936 7.07244C136.017 8.40687 129.697 10.1917 122.881 4.93737C118.753 1.75143 112.091 1.68471 105.719 0C102.14 4.37024 97.858 9.82469 93.2851 15.079C92.1205 16.4134 90.2194 17.6311 88.4896 17.898C53.5847 23.1523 51.7008 49.6572 64.7344 71.1081C65.0085 71.5418 64.9571 72.159 63.4499 71.1248C58.0892 77.163 52.8654 83.3514 47.2135 89.1228C46.066 90.2904 43.2572 90.207 41.2191 90.2404C26.37 90.4739 14.7921 96.9959 6.5369 108.539C-7.83264 128.638 2.59772 158.496 26.9865 167.87C36.6804 171.59 43.2229 176.861 48.7549 186.619C54.4754 196.694 58.3289 209.955 71.9963 214.809C77.6824 216.827 77.2543 221.815 75.6615 226.869C72.5957 236.66 70.4377 246.752 67.0123 256.41C61.446 272.172 66.1902 287.135 69.8725 302.18C70.8145 306.017 75.2162 307.518 75.5244 313.223C76.3294 327.968 78.8128 342.863 82.7349 357.158C88.1299 376.758 100.77 392.437 117.708 403.847C123.24 407.583 131.941 406.866 139.185 408.2C147.8 409.785 156.398 411.369 165.818 413.104C162.975 444.88 158.419 474.521 132.677 496.989C122.144 506.18 113.426 517.389 104.281 527.998C101.403 531.334 99.3823 535.521 97.6525 539.608C90.4763 556.488 95.7685 568.598 113.563 574.403C132.232 580.491 151.157 585.762 170.014 591.283C215.64 604.677 253.234 631.066 288.31 661.257C303.262 674.117 316.895 688.429 331.727 701.44C335.975 705.159 342.312 706.611 347.689 709.096C348.768 703.642 351.834 697.72 350.584 692.833C345.531 673.25 340.599 653.434 332.823 634.802C325.578 617.438 315.354 601.158 305.437 584.978C296.857 571 292.934 556.838 299.494 541.392C309.171 518.557 319.173 495.872 329.415 473.27C335.957 458.842 348.289 453.237 363.943 453.387C379.306 453.537 394.806 454.838 410.015 453.387C432.262 451.252 439.867 441.077 437.349 419.693C436.407 411.603 439.13 405.748 445.724 400.978C455.093 394.205 455.264 392.304 450.314 382.329C449.389 380.478 449.595 376.641 450.914 375.457C456.942 370.036 456.257 364.481 453.003 358.109C448.276 348.868 450.075 344.265 459.751 339.427C462.286 338.16 464.941 337.075 467.356 335.624C476.895 329.836 478.642 322.897 472.083 313.94C462.475 300.846 452.318 288.135 442.487 275.175C439.576 271.338 434.558 267.669 440.072 262.565Z" fill="#FFCF54"></path> <path d="M440.072 262.565C432.143 259.862 432.16 253.39 433.667 249.304C439.182 234.275 432.16 220.347 431.132 205.935C429.334 180.648 417.259 160.431 397.974 144.184C391.038 138.33 388.743 130.657 385.472 122.967C381.738 114.193 377.936 104.485 371.222 98.1135C362.008 89.373 350.995 80.7994 339.092 76.7294C309.017 66.4209 278.222 56.5962 245.578 66.0206C237.255 68.4226 234.035 64.3859 232.613 58.2976C224.015 57.2968 215.983 56.5796 208.053 55.2285C206.957 55.045 205.827 51.809 205.707 49.9241C204.131 26.9053 201.853 24.1364 178.492 17.2141C176.916 16.747 175.118 15.9964 174.159 14.8121C165.749 4.37024 154.565 4.8206 142.936 7.07244C136.017 8.40687 129.697 10.1917 122.881 4.93737C118.753 1.75143 112.091 1.68471 105.719 0C102.14 4.37024 97.858 9.82469 93.2851 15.079C92.1205 16.4134 90.2194 17.6311 88.4896 17.898C53.5847 23.1523 51.7008 49.6572 64.7344 71.1081C65.0085 71.5418 64.9571 72.159 63.4499 71.1248C58.0892 77.163 52.8654 83.3514 47.2135 89.1228C46.066 90.2904 43.2572 90.207 41.2191 90.2404C26.37 90.4739 14.7921 96.9959 6.5369 108.539C-7.83264 128.638 2.59772 158.496 26.9865 167.87C36.6804 171.59 43.2229 176.861 48.7549 186.619C54.4754 196.694 58.3289 209.955 71.9963 214.809C77.6824 216.827 77.2543 221.815 75.6615 226.869C72.5957 236.66 70.4377 246.752 67.0123 256.41C61.446 272.172 66.1902 287.135 69.8725 302.18C70.8145 306.017 75.2162 307.518 75.5244 313.223C76.3294 327.968 78.8128 342.863 82.7349 357.158C88.1299 376.758 100.77 392.437 117.708 403.847C123.24 407.583 131.941 406.866 139.185 408.2C147.8 409.785 156.398 411.369 165.818 413.104C162.975 444.88 158.419 474.521 132.677 496.989C122.144 506.18 113.426 517.389 104.281 527.998C101.403 531.334 99.3823 535.521 97.6525 539.608C90.4763 556.488 95.7685 568.598 113.563 574.403C132.232 580.491 151.157 585.762 170.014 591.283C215.64 604.677 253.234 631.066 288.31 661.257C303.262 674.117 316.895 688.429 331.727 701.44C335.975 705.159 342.312 706.611 347.689 709.096C348.768 703.642 351.834 697.72 350.584 692.833C345.531 673.25 340.599 653.434 332.823 634.802C325.578 617.438 315.354 601.158 305.437 584.978C296.857 571 292.934 556.838 299.494 541.392C309.171 518.557 319.173 495.872 329.415 473.27C335.957 458.842 348.289 453.237 363.943 453.387C379.306 453.537 394.806 454.838 410.015 453.387C432.262 451.252 439.867 441.077 437.349 419.693C436.407 411.603 439.13 405.748 445.724 400.978C455.093 394.205 455.264 392.304 450.314 382.329C449.389 380.478 449.595 376.641 450.914 375.457C456.942 370.036 456.257 364.481 453.003 358.109C448.276 348.868 450.075 344.265 459.751 339.427C462.286 338.16 464.941 337.075 467.356 335.624C476.895 329.836 478.642 322.897 472.083 313.94C462.475 300.846 452.318 288.135 442.487 275.175C439.576 271.338 434.558 267.669 440.072 262.565Z" fill="url(#paint0_linear_2_8)"></path> </g> <g style="mix-blend-mode:overlay" opacity="0.5"> <path d="M440.072 262.565C432.143 259.862 432.16 253.39 433.667 249.304C439.182 234.275 432.16 220.347 431.132 205.935C429.334 180.648 417.259 160.431 397.974 144.184C391.038 138.33 388.743 130.657 385.472 122.967C381.738 114.193 377.936 104.485 371.222 98.1135C362.008 89.373 350.995 80.7993 339.092 76.7294C309.017 66.4209 278.222 56.5962 245.578 66.0206C237.255 68.4226 234.035 64.3859 232.613 58.2976C224.015 57.2968 215.983 56.5796 208.053 55.2285C206.957 55.045 205.827 51.809 205.707 49.9241C204.131 26.9053 201.853 24.1364 178.492 17.2141C176.916 16.747 175.118 15.9964 174.159 14.8121C165.749 4.37024 154.565 4.8206 142.936 7.07244C136.017 8.40687 129.697 10.1917 122.881 4.93737C118.753 1.75143 112.091 1.68471 105.719 0C102.14 4.37024 97.858 9.82469 93.2851 15.079C92.1205 16.4134 90.2194 17.6311 88.4896 17.898C53.5847 23.1522 51.7008 49.6572 64.7344 71.1081C65.0085 71.5418 64.9571 72.159 63.4499 71.1248C58.0891 77.163 52.8654 83.3514 47.2135 89.1228C46.066 90.2904 43.2572 90.207 41.2191 90.2404C26.37 90.4739 14.7921 96.9959 6.53687 108.539C-7.83267 128.638 2.59769 158.496 26.9865 167.87C36.6804 171.59 43.2229 176.861 48.7549 186.619C54.4753 196.694 58.3289 209.955 71.9963 214.809C77.6824 216.827 77.2543 221.815 75.6615 226.869C72.5957 236.66 70.4377 246.752 67.0123 256.409C61.446 272.172 66.1902 287.135 69.8725 302.18C70.8145 306.017 75.2161 307.518 75.5244 313.223C76.3294 327.968 78.8128 342.863 82.7349 357.158C88.1299 376.758 100.77 392.437 117.708 403.847C123.24 407.583 131.941 406.866 139.185 408.2C147.8 409.785 156.398 411.369 165.818 413.104C162.975 444.88 158.419 474.521 132.677 496.989C122.144 506.18 113.426 517.389 104.281 527.998C101.403 531.334 99.3823 535.521 97.6525 539.608C90.4763 556.488 95.7685 568.598 113.563 574.403C132.232 580.491 151.157 585.762 170.014 591.283C215.64 604.677 253.234 631.066 288.31 661.257C303.262 674.117 316.895 688.429 331.727 701.44C335.975 705.159 342.312 706.611 347.689 709.096C348.768 703.642 351.834 697.72 350.584 692.833C345.531 673.25 340.599 653.434 332.823 634.802C325.578 617.438 315.354 601.158 305.437 584.978C296.857 571 292.934 556.838 299.494 541.392C309.171 518.557 319.173 495.872 329.415 473.27C335.957 458.842 348.289 453.237 363.943 453.387C379.306 453.537 394.806 454.838 410.015 453.387C432.262 451.252 439.867 441.077 437.349 419.693C436.407 411.603 439.13 405.748 445.724 400.978C455.093 394.205 455.264 392.304 450.314 382.329C449.389 380.478 449.595 376.641 450.914 375.457C456.942 370.036 456.257 364.481 453.003 358.109C448.276 348.868 450.075 344.265 459.751 339.427C462.286 338.16 464.941 337.075 467.356 335.624C476.895 329.836 478.642 322.897 472.083 313.94C462.475 300.846 452.318 288.135 442.487 275.175C439.576 271.338 434.558 267.669 440.072 262.565Z" fill="#002B6C"></path> </g> <defs> <linearGradient id="paint0_linear_2_8" x1="443.468" y1="-97.5971" x2="71.5525" y2="718.067" gradientUnits="userSpaceOnUse"> <stop stop-color="#FF3636"></stop> <stop offset="1" stop-color="white" stop-opacity="0"></stop> </linearGradient> </defs> </svg> 