<?xml version="1.0" encoding="UTF-8"?> <svg xmlns="http://www.w3.org/2000/svg" width="179" height="179" viewBox="0 0 179 179" fill="none"> <path d="M89.5 0C89.5125 33.0192 129.429 49.5532 152.786 26.2139C129.447 49.571 145.981 89.4874 179 89.5C145.981 89.5125 129.447 129.429 152.786 152.786C129.429 129.447 89.5125 145.981 89.5 179C89.4874 145.981 49.571 129.447 26.2139 152.786C49.5532 129.429 33.0192 89.5125 0 89.5C33.0192 89.4874 49.5532 49.571 26.2139 26.2139C49.571 49.5532 89.4874 33.0192 89.5 0Z" fill="url(#paint0_linear_27_278)"></path> <path d="M71.415 100V99.57H75.715L73.221 91.572H61.267L58.773 99.57H63.073V100H54V99.57H58.3L67.674 69.47H68.147L77.521 99.57H81.821V100H71.415ZM67.244 72.308L61.396 91.142H73.092L67.244 72.308ZM94.4828 100V99.57H97.9228V88.175H88.0758V99.57H91.5158V100H83.1738V99.57H86.6138V76.35H83.1738V75.92H91.5158V76.35H88.0758V87.745H97.9228V76.35H94.4828V75.92H102.825V76.35H99.3848V99.57H102.825V100H94.4828ZM104.654 100V99.57H108.094L112.953 91.529C112.179 91.3857 111.448 91.0847 110.76 90.626C110.072 90.1673 109.47 89.594 108.954 88.906C108.438 88.218 108.036 87.444 107.75 86.584C107.463 85.6953 107.32 84.7493 107.32 83.746C107.32 82.6853 107.492 81.682 107.836 80.736C108.18 79.7613 108.653 78.93 109.255 78.242C109.857 77.5253 110.559 76.9663 111.362 76.565C112.164 76.135 113.024 75.92 113.942 75.92H123.058V76.35H119.618V99.57H123.058V100H114.759V99.57H118.156V76.35H113.942C113.11 76.35 112.365 76.5507 111.706 76.952C111.075 77.3247 110.545 77.855 110.115 78.543C109.685 79.2023 109.355 79.9907 109.126 80.908C108.896 81.7967 108.782 82.7427 108.782 83.746C108.782 84.6633 108.882 85.5377 109.083 86.369C109.312 87.1717 109.613 87.9027 109.986 88.562C110.387 89.2213 110.86 89.7803 111.405 90.239C111.949 90.669 112.566 90.9557 113.254 91.099C113.254 91.0703 113.268 91.0417 113.297 91.013C113.325 90.9843 113.34 90.9557 113.34 90.927C113.655 90.5257 113.956 90.153 114.243 89.809C114.558 89.4363 114.945 89.1353 115.404 88.906C115.862 88.6767 116.292 88.562 116.694 88.562C117.124 88.562 117.41 88.6767 117.554 88.906C117.726 89.164 117.754 89.4793 117.64 89.852C117.525 90.196 117.224 90.5257 116.737 90.841C116.364 91.0703 115.92 91.2567 115.404 91.4C114.916 91.5147 114.429 91.572 113.942 91.572H113.555L109.986 99.57H113.426V100H104.654ZM113.942 91.142C114.4 91.142 114.859 91.099 115.318 91.013C115.776 90.8983 116.163 90.7263 116.479 90.497C116.765 90.2963 116.98 90.067 117.124 89.809C117.267 89.551 117.296 89.3503 117.21 89.207C117.095 89.0637 116.866 89.0063 116.522 89.035C116.206 89.035 115.891 89.121 115.576 89.293C115.203 89.5223 114.845 89.8377 114.501 90.239C114.185 90.6117 113.942 90.9127 113.77 91.142H113.942Z" fill="#1C1C1C"></path> <defs> <linearGradient id="paint0_linear_27_278" x1="18.3475" y1="14.32" x2="89.5" y2="179" gradientUnits="userSpaceOnUse"> <stop stop-color="#ACAAFF"></stop> <stop offset="1" stop-color="#C0E8FF"></stop> </linearGradient> </defs> </svg> 