<?xml version="1.0" encoding="UTF-8"?> <svg xmlns="http://www.w3.org/2000/svg" width="133" height="133" viewBox="0 0 133 133" fill="none"> <path d="M66.5008 115.536C16.2025 157.568 -24.5679 116.798 17.4645 66.4999C-24.5679 16.2023 16.2025 -24.5676 66.5008 17.4643C116.789 -24.5676 157.57 16.2023 115.537 66.4999C157.57 116.759 116.789 157.568 66.5008 115.536Z" fill="url(#paint0_linear_8_97)"></path> <path d="M26.064 77C27.0387 77 27.87 76.2547 28.558 74.764C29.2747 73.2733 29.8623 71.2237 30.321 68.615C30.7797 66.0063 31.1237 62.939 31.353 59.413C31.5823 55.887 31.697 52.0743 31.697 47.975V47.33H27.397V46.9H48.08V47.33H43.78V76.57H48.08V77H37.76V76.57H42.06V47.33H32.127V47.975C32.127 52.0743 31.998 55.9157 31.74 59.499C31.5107 63.0823 31.1523 66.207 30.665 68.873C30.1777 71.5103 29.5613 73.603 28.816 75.151C28.0707 76.6703 27.182 77.43 26.15 77.43C25.8347 77.43 25.4333 77.3583 24.946 77.215C24.4873 77.0717 24.1147 76.8423 23.828 76.527L24.043 76.183C24.3583 76.4983 24.7167 76.7133 25.118 76.828C25.5193 76.9427 25.8347 77 26.064 77ZM51.1162 77V76.57H54.5562V53.35H51.1162V52.92H65.9512V62.681H65.5212V59.198C65.5212 57.736 65.4209 56.618 65.2202 55.844C65.0482 55.0413 64.8045 54.4537 64.4892 54.081C64.2025 53.7083 63.8729 53.4933 63.5002 53.436C63.1562 53.3787 62.8122 53.35 62.4682 53.35H56.0182V64.745H62.5112V65.175H56.0182V76.57H62.4682C62.8122 76.57 63.1562 76.5413 63.5002 76.484C63.8729 76.4267 64.2025 76.2117 64.4892 75.839C64.8045 75.4663 65.0482 74.893 65.2202 74.119C65.4209 73.3163 65.5212 72.184 65.5212 70.722V67.239H65.9512V77H51.1162ZM69.0049 77V76.57H72.4449V53.35H69.0049V52.92H78.1639C79.1672 52.92 80.0845 53.1493 80.9159 53.608C81.7472 54.0667 82.4495 54.683 83.0229 55.457C83.6249 56.231 84.0835 57.1483 84.3989 58.209C84.7429 59.2697 84.9149 60.402 84.9149 61.606C84.9149 62.81 84.7429 63.9423 84.3989 65.003C84.0835 66.0637 83.6249 66.981 83.0229 67.755C82.4495 68.529 81.7472 69.1453 80.9159 69.604C80.0845 70.0627 79.1672 70.292 78.1639 70.292C77.0459 70.292 76.0999 70.0483 75.3259 69.561L75.5409 69.174C75.9422 69.4607 76.3579 69.647 76.7879 69.733C77.2465 69.819 77.7052 69.862 78.1639 69.862C79.0812 69.862 79.8695 69.647 80.5289 69.217C81.1882 68.787 81.7185 68.1993 82.1199 67.454C82.5499 66.68 82.8652 65.7913 83.0659 64.788C83.2665 63.7847 83.3669 62.724 83.3669 61.606C83.3669 60.488 83.2665 59.4273 83.0659 58.424C82.8652 57.4207 82.5499 56.5463 82.1199 55.801C81.7185 55.027 81.1882 54.425 80.5289 53.995C79.8695 53.565 79.0812 53.35 78.1639 53.35H73.9069V76.57H77.3469V77H69.0049ZM99.6165 77V76.57H103.057L101.079 70.292H91.6185L89.6405 76.57H93.0805V77H85.7275V76.57H89.1675C90.4002 72.6713 91.6472 68.6723 92.9085 64.573C94.1698 60.4737 95.4168 56.4747 96.6495 52.576H97.1225L104.605 76.57H108.045V77H99.6165ZM96.3485 55.027L91.7475 69.862H100.95L96.3485 55.027Z" fill="#1C1C1C"></path> <defs> <linearGradient id="paint0_linear_8_97" x1="9.30998" y1="17.29" x2="119.035" y2="119.368" gradientUnits="userSpaceOnUse"> <stop stop-color="#E9B8FF"></stop> <stop offset="1" stop-color="#F9ECFF"></stop> </linearGradient> </defs> </svg> 