<?xml version="1.0" encoding="UTF-8"?> <svg xmlns="http://www.w3.org/2000/svg" width="112" height="112" viewBox="0 0 112 112" fill="none"> <path fill-rule="evenodd" clip-rule="evenodd" d="M10.3066 56.2363C4.65795 57.358 0.399985 62.342 0.399985 68.32L0.399983 99.68C0.399983 106.484 5.91584 112 12.72 112H44.08C50.1985 112 55.2752 107.54 56.2363 101.693C57.358 107.342 62.342 111.6 68.32 111.6H99.68C106.484 111.6 112 106.084 112 99.2802V67.9202C112 61.8016 107.54 56.7246 101.694 55.7637C107.342 54.6418 111.6 49.6581 111.6 43.68V12.32C111.6 5.51585 106.084 1.66821e-06 99.2802 1.37079e-06L67.9202 0C61.8016 -2.67448e-07 56.7246 4.46018 55.7637 10.3066C54.6418 4.65796 49.6582 0.399997 43.68 0.399997H12.32C5.51585 0.399997 0 5.91584 0 12.72V44.08C0 50.1985 4.46019 55.2752 10.3066 56.2363Z" fill="url(#paint0_linear_34_313)"></path> <path d="M35.96 41.54H32.56V41.2H39.802V41.54H36.402L31.166 50.55L37.49 64.66H40.89V65H32.526V64.66H35.926L30.282 52.08L27.12 57.52V64.66H30.52V65H22.36V64.66H25.76V41.54H22.36V41.2H30.52V41.54H27.12V56.806L35.96 41.54ZM51.3827 65V64.66H54.1027V48.884L46.3167 62.79V64.66H49.0367V65H42.4407V64.66H45.1607V46.3H42.4407V45.96H49.0367V46.3H46.3167V62.076L54.1027 48.17V46.3H51.3827V45.96H57.9787V46.3H55.2587V64.66H57.9787V65H51.3827ZM60.1048 65V64.66H62.8248V46.3H60.1048V45.96H67.3468C68.1401 45.96 68.8654 46.1413 69.5228 46.504C70.1801 46.8667 70.7354 47.354 71.1888 47.966C71.6648 48.578 72.0274 49.3033 72.2768 50.142C72.5488 50.9807 72.6848 51.876 72.6848 52.828C72.6848 53.78 72.5488 54.6753 72.2768 55.514C72.0274 56.3527 71.6648 57.078 71.1888 57.69C70.7354 58.302 70.1801 58.7893 69.5228 59.152C68.8654 59.5147 68.1401 59.696 67.3468 59.696C66.4628 59.696 65.7148 59.5033 65.1028 59.118L65.2728 58.812C65.5901 59.0387 65.9188 59.186 66.2588 59.254C66.6214 59.322 66.9841 59.356 67.3468 59.356C68.0721 59.356 68.6954 59.186 69.2168 58.846C69.7381 58.506 70.1574 58.0413 70.4748 57.452C70.8148 56.84 71.0641 56.1373 71.2228 55.344C71.3814 54.5507 71.4608 53.712 71.4608 52.828C71.4608 51.944 71.3814 51.1053 71.2228 50.312C71.0641 49.5187 70.8148 48.8273 70.4748 48.238C70.1574 47.626 69.7381 47.15 69.2168 46.81C68.6954 46.47 68.0721 46.3 67.3468 46.3H63.9808V64.66H66.7008V65H60.1048ZM84.3093 65V64.66H87.0293L85.4653 59.696H77.9853L76.4213 64.66H79.1413V65H73.3273V64.66H76.0473C77.022 61.5773 78.008 58.4153 79.0053 55.174C80.0027 51.9327 80.9887 48.7707 81.9633 45.688H82.3373L88.2533 64.66H90.9733V65H84.3093ZM81.7253 47.626L78.0873 59.356H85.3633L81.7253 47.626Z" fill="#1C1C1C"></path> <defs> <linearGradient id="paint0_linear_34_313" x1="88.2" y1="17.92" x2="24.64" y2="82.6" gradientUnits="userSpaceOnUse"> <stop offset="0.0509862" stop-color="#FFB6E1"></stop> <stop offset="1" stop-color="#FBE3EA"></stop> </linearGradient> </defs> </svg> 