<?xml version="1.0" encoding="UTF-8"?> <svg xmlns="http://www.w3.org/2000/svg" width="114" height="114" viewBox="0 0 114 114" fill="none"> <path fill-rule="evenodd" clip-rule="evenodd" d="M77.357 0H36.6428V36.6428H1.77968e-06L0 77.357H36.6428V114H77.357V77.357H114V36.6428H77.357V0Z" fill="url(#paint0_linear_34_322)"></path> <path d="M36.96 42.54H33.56V42.2H40.802V42.54H37.402L32.166 51.55L38.49 65.66H41.89V66H33.526V65.66H36.926L31.282 53.08L28.12 58.52V65.66H31.52V66H23.36V65.66H26.76V42.54H23.36V42.2H31.52V42.54H28.12V57.806L36.96 42.54ZM53.3347 66V65.66H56.0547L54.4907 60.696H47.0107L45.4467 65.66H48.1667V66H42.3527V65.66H45.0727C46.0474 62.5773 47.0334 59.4153 48.0307 56.174C49.0281 52.9327 50.0141 49.7707 50.9887 46.688H51.3627L57.2787 65.66H59.9987V66H53.3347ZM50.7507 48.626L47.1127 60.356H54.3887L50.7507 48.626ZM63.8944 66V65.66H66.6144V47.3H63.9284C63.6564 47.3 63.373 47.3227 63.0784 47.368C62.8064 47.4133 62.5457 47.5833 62.2964 47.878C62.0697 48.1727 61.877 48.6373 61.7184 49.272C61.5824 49.884 61.5144 50.768 61.5144 51.924V54.678H61.1744V46.96H73.1764V54.678H72.8364V51.924C72.8364 50.768 72.757 49.884 72.5984 49.272C72.4624 48.6373 72.2697 48.1727 72.0204 47.878C71.7937 47.5833 71.533 47.4133 71.2384 47.368C70.9664 47.3227 70.6944 47.3 70.4224 47.3H67.7704V65.66H70.4564V66H63.8944ZM74.7685 66V65.66H77.4885L81.3305 59.302C80.7185 59.1887 80.1405 58.9507 79.5965 58.588C79.0525 58.2253 78.5765 57.772 78.1685 57.228C77.7605 56.684 77.4432 56.072 77.2165 55.392C76.9899 54.6893 76.8765 53.9413 76.8765 53.148C76.8765 52.3093 77.0125 51.516 77.2845 50.768C77.5565 49.9973 77.9305 49.34 78.4065 48.796C78.8825 48.2293 79.4379 47.7873 80.0725 47.47C80.7072 47.13 81.3872 46.96 82.1125 46.96H89.3205V47.3H86.6005V65.66H89.3205V66H82.7585V65.66H85.4445V47.3H82.1125C81.4552 47.3 80.8659 47.4587 80.3445 47.776C79.8459 48.0707 79.4265 48.49 79.0865 49.034C78.7465 49.5553 78.4859 50.1787 78.3045 50.904C78.1232 51.6067 78.0325 52.3547 78.0325 53.148C78.0325 53.8733 78.1119 54.5647 78.2705 55.222C78.4519 55.8567 78.6899 56.4347 78.9845 56.956C79.3019 57.4773 79.6759 57.9193 80.1065 58.282C80.5372 58.622 81.0245 58.8487 81.5685 58.962C81.5685 58.9393 81.5799 58.9167 81.6025 58.894C81.6252 58.8713 81.6365 58.8487 81.6365 58.826C81.8859 58.5087 82.1239 58.214 82.3505 57.942C82.5999 57.6473 82.9059 57.4093 83.2685 57.228C83.6312 57.0467 83.9712 56.956 84.2885 56.956C84.6285 56.956 84.8552 57.0467 84.9685 57.228C85.1045 57.432 85.1272 57.6813 85.0365 57.976C84.9459 58.248 84.7079 58.5087 84.3225 58.758C84.0279 58.9393 83.6765 59.0867 83.2685 59.2C82.8832 59.2907 82.4979 59.336 82.1125 59.336H81.8065L78.9845 65.66H81.7045V66H74.7685ZM82.1125 58.996C82.4752 58.996 82.8379 58.962 83.2005 58.894C83.5632 58.8033 83.8692 58.6673 84.1185 58.486C84.3452 58.3273 84.5152 58.146 84.6285 57.942C84.7419 57.738 84.7645 57.5793 84.6965 57.466C84.6059 57.3527 84.4245 57.3073 84.1525 57.33C83.9032 57.33 83.6539 57.398 83.4045 57.534C83.1099 57.7153 82.8265 57.9647 82.5545 58.282C82.3052 58.5767 82.1125 58.8147 81.9765 58.996H82.1125Z" fill="#1C1C1C"></path> <defs> <linearGradient id="paint0_linear_34_322" x1="100.89" y1="-5.71581e-06" x2="22.515" y2="86.925" gradientUnits="userSpaceOnUse"> <stop stop-color="#B0B9FF"></stop> <stop offset="1" stop-color="#E7E9FF"></stop> </linearGradient> </defs> </svg> 