<?xml version="1.0" encoding="UTF-8"?> <svg xmlns="http://www.w3.org/2000/svg" width="142" height="164" viewBox="0 0 142 164" fill="none"> <path d="M70.9998 0L90.7578 47.7712L142 41L110.516 82L142 123L90.7578 116.228L70.9998 164L51.2418 116.228L0 123L31.4837 82L0 41L51.2418 47.7712L70.9998 0Z" fill="url(#paint0_linear_27_274)"></path> <path d="M52.415 93V92.57H56.715L54.221 84.572H42.267L39.773 92.57H44.073V93H35V92.57H39.3L48.674 62.47H49.147L58.521 92.57H62.821V93H52.415ZM48.244 65.308L42.396 84.142H54.092L48.244 65.308ZM75.4828 93V92.57H78.9228V81.175H69.0758V92.57H72.5158V93H64.1738V92.57H67.6138V69.35H64.1738V68.92H72.5158V69.35H69.0758V80.745H78.9228V69.35H75.4828V68.92H83.8248V69.35H80.3848V92.57H83.8248V93H75.4828ZM85.6537 93V92.57H89.0937L93.9527 84.529C93.1787 84.3857 92.4477 84.0847 91.7597 83.626C91.0717 83.1673 90.4697 82.594 89.9537 81.906C89.4377 81.218 89.0363 80.444 88.7497 79.584C88.463 78.6953 88.3197 77.7493 88.3197 76.746C88.3197 75.6853 88.4917 74.682 88.8357 73.736C89.1797 72.7613 89.6527 71.93 90.2547 71.242C90.8567 70.5253 91.559 69.9663 92.3617 69.565C93.1643 69.135 94.0243 68.92 94.9417 68.92H104.058V69.35H100.618V92.57H104.058V93H95.7587V92.57H99.1557V69.35H94.9417C94.1103 69.35 93.365 69.5507 92.7057 69.952C92.075 70.3247 91.5447 70.855 91.1147 71.543C90.6847 72.2023 90.355 72.9907 90.1257 73.908C89.8963 74.7967 89.7817 75.7427 89.7817 76.746C89.7817 77.6633 89.882 78.5377 90.0827 79.369C90.312 80.1717 90.613 80.9027 90.9857 81.562C91.387 82.2213 91.86 82.7803 92.4047 83.239C92.9493 83.669 93.5657 83.9557 94.2537 84.099C94.2537 84.0703 94.268 84.0417 94.2967 84.013C94.3253 83.9843 94.3397 83.9557 94.3397 83.927C94.655 83.5257 94.956 83.153 95.2427 82.809C95.558 82.4363 95.945 82.1353 96.4037 81.906C96.8623 81.6767 97.2923 81.562 97.6937 81.562C98.1237 81.562 98.4103 81.6767 98.5537 81.906C98.7257 82.164 98.7543 82.4793 98.6397 82.852C98.525 83.196 98.224 83.5257 97.7367 83.841C97.364 84.0703 96.9197 84.2567 96.4037 84.4C95.9163 84.5147 95.429 84.572 94.9417 84.572H94.5547L90.9857 92.57H94.4257V93H85.6537ZM94.9417 84.142C95.4003 84.142 95.859 84.099 96.3177 84.013C96.7763 83.8983 97.1633 83.7263 97.4787 83.497C97.7653 83.2963 97.9803 83.067 98.1237 82.809C98.267 82.551 98.2957 82.3503 98.2097 82.207C98.095 82.0637 97.8657 82.0063 97.5217 82.035C97.2063 82.035 96.891 82.121 96.5757 82.293C96.203 82.5223 95.8447 82.8377 95.5007 83.239C95.1853 83.6117 94.9417 83.9127 94.7697 84.142H94.9417Z" fill="#1C1C1C"></path> <defs> <linearGradient id="paint0_linear_27_274" x1="70.9998" y1="0" x2="70.9998" y2="164" gradientUnits="userSpaceOnUse"> <stop stop-color="#A7B5FF"></stop> <stop offset="1" stop-color="#F3ACFF"></stop> </linearGradient> </defs> </svg> 