<?xml version="1.0" encoding="UTF-8"?> <svg xmlns="http://www.w3.org/2000/svg" width="133" height="133" viewBox="0 0 133 133" fill="none"> <path d="M59.9962 120V110.663C29.435 110.663 0 90.5592 0 60H9.3297C9.3297 29.4407 29.435 0 59.9962 0V9.33672C90.5574 9.33672 120 29.4407 120 60H110.671C110.671 90.5592 90.5574 120 59.9962 120Z" fill="url(#paint0_linear_33_301)"></path> <path d="M26.632 69C27.4027 69 28.06 68.4107 28.604 67.232C29.1707 66.0533 29.6353 64.4327 29.998 62.37C30.3607 60.3073 30.6327 57.882 30.814 55.094C30.9953 52.306 31.086 49.2913 31.086 46.05V45.54H27.686V45.2H44.04V45.54H40.64V68.66H44.04V69H35.88V68.66H39.28V45.54H31.426V46.05C31.426 49.2913 31.324 52.3287 31.12 55.162C30.9387 57.9953 30.6553 60.466 30.27 62.574C29.8847 64.6593 29.3973 66.314 28.808 67.538C28.2187 68.7393 27.516 69.34 26.7 69.34C26.4507 69.34 26.1333 69.2833 25.748 69.17C25.3853 69.0567 25.0907 68.8753 24.864 68.626L25.034 68.354C25.2833 68.6033 25.5667 68.7733 25.884 68.864C26.2013 68.9547 26.4507 69 26.632 69ZM55.3827 69V68.66H58.1027V52.884L50.3167 66.79V68.66H53.0367V69H46.4407V68.66H49.1607V50.3H46.4407V49.96H53.0367V50.3H50.3167V66.076L58.1027 52.17V50.3H55.3827V49.96H61.9787V50.3H59.2587V68.66H61.9787V69H55.3827ZM70.8028 59.31C70.4174 59.4913 70.0434 59.65 69.6808 59.786C69.3181 59.922 68.9668 59.9673 68.6268 59.922C68.2188 59.8767 67.8901 59.7633 67.6408 59.582C67.4141 59.4007 67.3008 59.1853 67.3008 58.936C67.3008 58.6867 67.4141 58.4713 67.6408 58.29C67.8901 58.1087 68.2188 57.9953 68.6268 57.95C69.0121 57.9047 69.3861 57.9613 69.7488 58.12C70.1341 58.256 70.4854 58.4033 70.8028 58.562L71.1088 58.732C71.6754 58.392 72.1288 57.916 72.4688 57.304C72.8088 56.692 72.9788 55.8647 72.9788 54.822C72.9788 53.3713 72.6614 52.2153 72.0268 51.354C71.4148 50.47 70.4628 50.028 69.1708 50.028C68.4001 50.028 67.7314 50.1867 67.1648 50.504C66.6208 50.8213 66.1674 51.2747 65.8048 51.864C65.4421 52.4307 65.1701 53.1107 64.9888 53.904C64.8074 54.6973 64.7168 55.5813 64.7168 56.556V57.678H64.3768V49.96H64.7168V51.694C64.7168 52.0793 64.7168 52.3853 64.7168 52.612C64.7394 52.816 64.7961 52.952 64.8868 53.02C65.1814 52.068 65.6801 51.2747 66.3828 50.64C67.1081 50.0053 68.0374 49.688 69.1708 49.688C69.8734 49.688 70.5194 49.824 71.1088 50.096C71.7208 50.3453 72.2421 50.6967 72.6728 51.15C73.1261 51.5807 73.4774 52.0907 73.7268 52.68C73.9988 53.2693 74.1348 53.904 74.1348 54.584C74.1348 55.5587 73.8741 56.4313 73.3528 57.202C72.8314 57.95 72.1741 58.528 71.3808 58.936C72.3328 59.3667 73.1148 60.0127 73.7268 60.874C74.3614 61.7127 74.6788 62.71 74.6788 63.866C74.6788 64.614 74.5314 65.3167 74.2368 65.974C73.9648 66.6087 73.5794 67.1753 73.0808 67.674C72.5821 68.1727 72.0041 68.5693 71.3468 68.864C70.6894 69.136 69.9868 69.272 69.2388 69.272C68.4228 69.272 67.6974 69.1133 67.0628 68.796C66.4508 68.456 65.9294 68.0027 65.4988 67.436C65.0908 66.8467 64.7734 66.1667 64.5468 65.396C64.3428 64.6027 64.2408 63.7527 64.2408 62.846H64.5808C64.5808 63.7073 64.6828 64.512 64.8868 65.26C65.0908 65.9853 65.3854 66.62 65.7708 67.164C66.1788 67.708 66.6661 68.1387 67.2328 68.456C67.8221 68.7733 68.4908 68.932 69.2388 68.932C70.6214 68.932 71.6754 68.4333 72.4008 67.436C73.1488 66.4387 73.5228 65.1693 73.5228 63.628C73.5228 62.472 73.3074 61.5313 72.8768 60.806C72.4461 60.058 71.8568 59.5027 71.1088 59.14L70.8028 59.31ZM68.6268 59.582C68.9894 59.6273 69.3294 59.582 69.6468 59.446C69.9641 59.31 70.2474 59.1853 70.4968 59.072L70.7688 58.936C70.4741 58.7773 70.1341 58.6187 69.7488 58.46C69.3861 58.3013 69.0121 58.2447 68.6268 58.29C68.3094 58.3353 68.0601 58.426 67.8788 58.562C67.7201 58.6753 67.6408 58.8 67.6408 58.936C67.6408 59.072 67.7314 59.208 67.9128 59.344C68.0941 59.4573 68.3321 59.5367 68.6268 59.582ZM87.0476 69V68.66H89.7676L88.2036 63.696H80.7236L79.1596 68.66H81.8796V69H76.0656V68.66H78.7856C79.7603 65.5773 80.7463 62.4153 81.7436 59.174C82.7409 55.9327 83.7269 52.7707 84.7016 49.688H85.0756L90.9916 68.66H93.7116V69H87.0476ZM84.4636 51.626L80.8256 63.356H88.1016L84.4636 51.626Z" fill="#1C1C1C"></path> <defs> <linearGradient id="paint0_linear_33_301" x1="94.5" y1="19.2" x2="26.4" y2="88.5" gradientUnits="userSpaceOnUse"> <stop offset="0.0509862" stop-color="#FFB6E1"></stop> <stop offset="1" stop-color="#FBE3EA"></stop> </linearGradient> </defs> </svg> 