<?xml version="1.0" encoding="UTF-8"?> <svg xmlns="http://www.w3.org/2000/svg" width="200" height="200" viewBox="0 0 200 200" fill="none"> <path d="M99.995 200V143.969L0 99.995H56.0313L99.995 0V56.0313L200 99.995H143.969L99.995 200Z" fill="url(#paint0_linear_33_295)"></path> <path d="M63.42 109C63.08 109 62.7287 109.023 62.366 109.068C62.0033 109.136 61.6747 109.351 61.38 109.714C61.0853 110.099 60.836 110.689 60.632 111.482C60.4507 112.275 60.36 113.409 60.36 114.882V115.8H60.02V108.66H61.652C62.4227 108.66 63.08 108.082 63.624 106.926C64.1907 105.747 64.6553 104.149 65.018 102.132C65.3807 100.092 65.6527 97.7007 65.834 94.958C66.0153 92.1927 66.106 89.2233 66.106 86.05V85.54H62.706V85.2H79.06V85.54H75.66V108.66H79.06V115.8H78.72V114.882C78.72 113.409 78.618 112.275 78.414 111.482C78.2327 110.689 77.9947 110.099 77.7 109.714C77.4053 109.351 77.0767 109.136 76.714 109.068C76.3513 109.023 76 109 75.66 109H63.42ZM66.446 86.05C66.446 88.906 66.3667 91.6033 66.208 94.142C66.072 96.6807 65.8453 98.9473 65.528 100.942C65.2333 102.937 64.848 104.603 64.372 105.94C63.896 107.277 63.3407 108.184 62.706 108.66H74.3V85.54H66.446V86.05ZM91.364 109V108.66H94.084L92.52 103.696H85.04L83.476 108.66H86.196V109H80.382V108.66H83.102C84.0767 105.577 85.0627 102.415 86.06 99.174C87.0573 95.9327 88.0433 92.7707 89.018 89.688H89.392L95.308 108.66H98.028V109H91.364ZM88.78 91.626L85.142 103.356H92.418L88.78 91.626ZM99.1017 109V108.66H101.788V90.3H99.1017V89.96H105.664V90.3H102.944V108.66H109.642V90.3H106.956V89.96H113.518V90.3H110.798V108.66H117.53V90.3H114.81V89.96H121.372V90.3H118.652V108.66H121.372V109H99.1017ZM133.432 109V108.66H136.152L134.588 103.696H127.108L125.544 108.66H128.264V109H122.45V108.66H125.17C126.145 105.577 127.131 102.415 128.128 99.174C129.126 95.9327 130.112 92.7707 131.086 89.688H131.46L137.376 108.66H140.096V109H133.432ZM130.848 91.626L127.21 103.356H134.486L130.848 91.626Z" fill="#1C1C1C"></path> <defs> <linearGradient id="paint0_linear_33_295" x1="177" y1="-1.00277e-05" x2="39.5" y2="152.5" gradientUnits="userSpaceOnUse"> <stop stop-color="#B0B9FF"></stop> <stop offset="1" stop-color="#E7E9FF"></stop> </linearGradient> </defs> </svg> 