<?xml version="1.0" encoding="UTF-8"?> <svg xmlns="http://www.w3.org/2000/svg" width="145" height="154" viewBox="0 0 145 154" fill="none"> <path d="M107.616 77C119.062 74.7133 130.326 69.0622 137.198 61.6362L145 53.2055L133.782 51.017C123.901 49.0891 111.5 51.205 100.909 56.1512C108.839 47.5047 114.663 36.2459 115.901 26.1581L117.308 14.7055L106.959 19.5953C97.8429 23.9023 89.0421 32.976 83.3507 43.2661C84.735 31.5628 82.8956 18.9964 78.0267 10.0999L72.5 0L66.9727 10.0999C62.1043 18.9964 60.2645 31.5628 61.6487 43.2661C55.9579 32.976 47.157 23.9019 38.0413 19.5953L27.6923 14.7055L29.0982 26.1581C30.3366 36.2459 36.1607 47.5047 44.0908 56.1512C33.4993 51.205 21.0985 49.0895 11.2176 51.017L0 53.2055L7.80176 61.6362C14.6739 69.0622 25.9369 74.7129 37.3842 77C25.9373 79.2869 14.6739 84.9372 7.80176 92.3638L0 100.795L11.2176 102.983C21.0985 104.911 33.499 102.795 44.0908 97.8485C36.1607 106.496 30.3366 117.754 29.0982 127.842L27.6923 139.294L38.0409 134.405C47.1567 130.098 55.9576 121.024 61.6483 110.734C60.2641 122.437 62.1039 135.003 66.9724 143.9L72.4992 154L78.026 143.9C82.8948 135.003 84.7343 122.437 83.3507 110.734C89.0413 121.024 97.8421 130.098 106.958 134.405L117.306 139.294L115.9 127.842C114.662 117.754 108.838 106.496 100.908 97.8485C111.5 102.795 123.9 104.91 133.781 102.983L144.998 100.795L137.197 92.3638C130.326 84.9379 119.062 79.2869 107.616 77Z" fill="url(#paint0_linear_33_300)"></path> <path d="M41.58 86V85.66H44.98V74.27H35.12V85.66H38.52V86H30.36V85.66H33.76V62.54H30.36V62.2H38.52V62.54H35.12V73.93H44.98V62.54H41.58V62.2H49.74V62.54H46.34V85.66H49.74V86H41.58ZM62.0613 86V85.66H64.7813L63.2173 80.696H55.7373L54.1733 85.66H56.8933V86H51.0793V85.66H53.7993C54.7739 82.5773 55.7599 79.4153 56.7573 76.174C57.7546 72.9327 58.7406 69.7707 59.7153 66.688H60.0893L66.0053 85.66H68.7253V86H62.0613ZM59.4773 68.626L55.8393 80.356H63.1153L59.4773 68.626ZM83.4329 78.282C83.4329 79.4153 83.2969 80.4693 83.0249 81.444C82.7756 82.4187 82.3903 83.2687 81.8689 83.994C81.3476 84.6967 80.7016 85.252 79.9309 85.66C79.1603 86.068 78.2763 86.272 77.2789 86.272C76.1456 86.272 75.1369 86.0227 74.2529 85.524C73.3689 85.0027 72.6209 84.3 72.0089 83.416C71.4196 82.532 70.9663 81.5007 70.6489 80.322C70.3316 79.1207 70.1729 77.84 70.1729 76.48C70.1729 75.12 70.3316 73.8507 70.6489 72.672C70.9663 71.4707 71.4196 70.428 72.0089 69.544C72.6209 68.66 73.3689 67.9687 74.2529 67.47C75.1369 66.9487 76.1456 66.688 77.2789 66.688C78.6163 66.688 79.7269 67.028 80.6109 67.708C81.4949 68.388 82.1749 69.3173 82.6509 70.496C82.7643 70.4053 82.8663 70.2807 82.9569 70.122C83.0476 69.9633 83.0929 69.7933 83.0929 69.612V66.96H83.4329V74.678H83.0929C83.0929 73.59 82.9569 72.5813 82.6849 71.652C82.4356 70.7227 82.0616 69.918 81.5629 69.238C81.0869 68.558 80.4863 68.0253 79.7609 67.64C79.0583 67.232 78.2309 67.028 77.2789 67.028C76.1909 67.028 75.2729 67.2773 74.5249 67.776C73.7769 68.2747 73.1649 68.9547 72.6889 69.816C72.2356 70.6773 71.9069 71.686 71.7029 72.842C71.4989 73.9753 71.3969 75.188 71.3969 76.48C71.3969 77.772 71.4989 78.996 71.7029 80.152C71.9069 81.2853 72.2356 82.2827 72.6889 83.144C73.1649 84.0053 73.7769 84.6853 74.5249 85.184C75.2729 85.6827 76.1909 85.932 77.2789 85.932C78.2309 85.932 79.0583 85.7393 79.7609 85.354C80.4863 84.946 81.0869 84.402 81.5629 83.722C82.0616 83.042 82.4356 82.2373 82.6849 81.308C82.9569 80.3787 83.0929 79.37 83.0929 78.282H83.4329ZM88.2928 86V85.66H91.0128V67.3H88.3268C88.0548 67.3 87.7715 67.3227 87.4768 67.368C87.2048 67.4133 86.9441 67.5833 86.6948 67.878C86.4681 68.1727 86.2755 68.6373 86.1168 69.272C85.9808 69.884 85.9128 70.768 85.9128 71.924V74.678H85.5728V66.96H97.5748V74.678H97.2348V71.924C97.2348 70.768 97.1555 69.884 96.9968 69.272C96.8608 68.6373 96.6681 68.1727 96.4188 67.878C96.1921 67.5833 95.9315 67.4133 95.6368 67.368C95.3648 67.3227 95.0928 67.3 94.8208 67.3H92.1688V85.66H94.8548V86H88.2928ZM99.167 86V85.66H101.887L105.729 79.302C105.117 79.1887 104.539 78.9507 103.995 78.588C103.451 78.2253 102.975 77.772 102.567 77.228C102.159 76.684 101.842 76.072 101.615 75.392C101.388 74.6893 101.275 73.9413 101.275 73.148C101.275 72.3093 101.411 71.516 101.683 70.768C101.955 69.9973 102.329 69.34 102.805 68.796C103.281 68.2293 103.836 67.7873 104.471 67.47C105.106 67.13 105.786 66.96 106.511 66.96H113.719V67.3H110.999V85.66H113.719V86H107.157V85.66H109.843V67.3H106.511C105.854 67.3 105.264 67.4587 104.743 67.776C104.244 68.0707 103.825 68.49 103.485 69.034C103.145 69.5553 102.884 70.1787 102.703 70.904C102.522 71.6067 102.431 72.3547 102.431 73.148C102.431 73.8733 102.51 74.5647 102.669 75.222C102.85 75.8567 103.088 76.4347 103.383 76.956C103.7 77.4773 104.074 77.9193 104.505 78.282C104.936 78.622 105.423 78.8487 105.967 78.962C105.967 78.9393 105.978 78.9167 106.001 78.894C106.024 78.8713 106.035 78.8487 106.035 78.826C106.284 78.5087 106.522 78.214 106.749 77.942C106.998 77.6473 107.304 77.4093 107.667 77.228C108.03 77.0467 108.37 76.956 108.687 76.956C109.027 76.956 109.254 77.0467 109.367 77.228C109.503 77.432 109.526 77.6813 109.435 77.976C109.344 78.248 109.106 78.5087 108.721 78.758C108.426 78.9393 108.075 79.0867 107.667 79.2C107.282 79.2907 106.896 79.336 106.511 79.336H106.205L103.383 85.66H106.103V86H99.167ZM106.511 78.996C106.874 78.996 107.236 78.962 107.599 78.894C107.962 78.8033 108.268 78.6673 108.517 78.486C108.744 78.3273 108.914 78.146 109.027 77.942C109.14 77.738 109.163 77.5793 109.095 77.466C109.004 77.3527 108.823 77.3073 108.551 77.33C108.302 77.33 108.052 77.398 107.803 77.534C107.508 77.7153 107.225 77.9647 106.953 78.282C106.704 78.5767 106.511 78.8147 106.375 78.996H106.511Z" fill="#1C1C1C"></path> <defs> <linearGradient id="paint0_linear_33_300" x1="72.5" y1="0" x2="72.5" y2="154" gradientUnits="userSpaceOnUse"> <stop stop-color="#B8DBFC"></stop> <stop offset="1" stop-color="#F8FBFE"></stop> </linearGradient> </defs> </svg> 