<?xml version="1.0" encoding="UTF-8"?> <svg xmlns="http://www.w3.org/2000/svg" width="182" height="182" viewBox="0 0 182 182" fill="none"> <path d="M89.0088 1.68021C89.3948 -0.56008 92.6053 -0.560064 92.9912 1.68023L97.2454 26.3723C97.5849 28.3409 100.263 28.6799 101.08 26.8576L111.329 4.00128C112.259 1.92754 115.368 2.7275 115.186 4.99359L113.178 29.9698C113.018 31.9611 115.527 32.9568 116.771 31.3953L132.371 11.8108C133.787 10.0339 136.6 11.5837 135.861 13.7331L127.717 37.4242C127.067 39.313 129.251 40.9028 130.844 39.7003L150.814 24.6183C152.626 23.2499 154.967 25.4519 153.717 27.3497L139.948 48.2671C138.851 49.9348 140.571 52.0187 142.412 51.2508L165.499 41.6188C167.594 40.7449 169.315 43.4609 167.633 44.9878L149.105 61.8171C147.628 63.1589 148.777 65.6062 150.751 65.321L175.503 61.7442C177.749 61.4197 178.741 64.4791 176.734 65.5392L154.61 77.223C152.846 78.1544 153.352 80.8112 155.334 81.0268L180.197 83.73C182.453 83.9753 182.654 87.1857 180.448 87.7124L156.119 93.5163C154.179 93.9794 154.009 96.6785 155.876 97.381L179.287 106.194C181.411 106.994 180.809 110.154 178.54 110.115L153.535 109.674C151.542 109.639 150.708 112.211 152.341 113.357L172.829 127.727C174.687 129.031 173.321 131.941 171.133 131.337L147.023 124.68C145.101 124.15 143.655 126.433 144.952 127.95L161.229 146.973C162.706 148.7 160.66 151.178 158.691 150.047L136.991 137.592C135.26 136.599 133.292 138.451 134.173 140.243L145.217 162.725C146.219 164.765 143.622 166.655 141.996 165.071L124.068 147.599C122.639 146.206 120.273 147.509 120.682 149.465L125.799 173.991C126.263 176.217 123.277 177.401 122.096 175.461L109.068 154.071C108.029 152.366 105.415 153.039 105.324 155.034L104.192 180.066C104.09 182.337 100.905 182.74 100.242 180.566L92.9329 156.603C92.3496 154.693 89.6504 154.693 89.0676 156.603L81.7585 180.566C81.0953 182.74 77.9101 182.337 77.8074 180.066L76.6758 155.034C76.5856 153.039 73.9709 152.366 72.9323 154.071L59.9048 175.461C58.7228 177.401 55.7377 176.217 56.202 173.991L61.319 149.465C61.727 147.509 59.3615 146.206 57.9322 147.599L40.005 165.071C38.3785 166.655 35.7811 164.765 36.7831 162.725L47.8273 140.243C48.7078 138.451 46.7399 136.599 45.0098 137.592L23.3094 150.047C21.3405 151.178 19.294 148.7 20.7709 146.973L37.0482 127.95C38.346 126.433 36.8995 124.15 34.9773 124.68L10.867 131.337C8.67953 131.941 7.31255 129.031 9.17135 127.727L29.6591 113.357C31.2926 112.211 30.4584 109.639 28.4648 109.674L3.45977 110.115C1.19108 110.154 0.589462 106.994 2.71351 106.194L26.1243 97.381C27.9908 96.6785 27.8213 93.9794 25.8816 93.5163L1.55292 87.7124C-0.654417 87.1857 -0.452807 83.9753 1.80299 83.73L26.6659 81.0268C28.6482 80.8112 29.154 78.1544 27.3901 77.223L5.26639 65.5392C3.25912 64.479 4.25126 61.4197 6.49707 61.7442L31.2499 65.321C33.2233 65.6062 34.3727 63.1589 32.8954 61.8171L14.3668 44.9878C12.6858 43.4609 14.406 40.7449 16.5008 41.6188L39.5881 51.2508C41.4289 52.0187 43.1495 49.9348 42.0518 48.2671L28.2825 27.3497C27.0331 25.4519 29.3736 23.2499 31.1856 24.6183L51.1568 39.7003C52.7491 40.9028 54.9329 39.313 54.2837 37.4242L46.1388 13.7331C45.3999 11.5837 48.2133 10.0339 49.6287 11.8108L65.229 31.3953C66.4727 32.9568 68.9826 31.9611 68.8226 29.9698L66.814 4.99357C66.6317 2.72749 69.7415 1.92753 70.6714 4.00127L80.9205 26.8576C81.7376 28.6799 84.4158 28.3409 84.7549 26.3723L89.0088 1.68021Z" fill="url(#paint0_linear_8_92)"></path> <path d="M47.415 102V101.57H51.715L49.221 93.572H37.267L34.773 101.57H39.073V102H30V101.57H34.3L43.674 71.47H44.147L53.521 101.57H57.821V102H47.415ZM43.244 74.308L37.396 93.142H49.092L43.244 74.308ZM76.0728 102V101.57H79.5128V78.866L71.5148 97.356H71.0848L63.1298 78.866V101.57H66.5698V102H59.2598V101.57H62.6998V78.35H59.2598V77.92H64.3338L71.9448 95.292L79.3838 77.92H84.3718V78.35H80.9748V101.57H84.3718V102H76.0728ZM98.4916 102V101.57H101.932V81.618L92.0846 99.205V101.57H95.5246V102H87.1826V101.57H90.6226V78.35H87.1826V77.92H95.5246V78.35H92.0846V98.302L101.932 80.715V78.35H98.4916V77.92H106.834V78.35H103.394V101.57H106.834V102H98.4916ZM120.831 102V101.57H124.271V90.175H114.424V101.57H117.864V102H109.522V101.57H112.962V78.35H109.522V77.92H117.864V78.35H114.424V89.745H124.271V78.35H120.831V77.92H129.173V78.35H125.733V101.57H129.173V102H120.831ZM144.375 102V101.57H147.815L145.837 95.292H136.377L134.399 101.57H137.839V102H130.486V101.57H133.926C135.159 97.6713 136.406 93.6723 137.667 89.573C138.929 85.4737 140.176 81.4747 141.408 77.576H141.881L149.363 101.57H152.803V102H144.375ZM141.107 80.027L136.506 94.862H145.708L141.107 80.027Z" fill="#1C1C1C"></path> <defs> <linearGradient id="paint0_linear_8_92" x1="143.325" y1="29.12" x2="40.0401" y2="134.225" gradientUnits="userSpaceOnUse"> <stop offset="0.0509862" stop-color="#FFB6E1"></stop> <stop offset="1" stop-color="#FBE3EA"></stop> </linearGradient> </defs> </svg> 