<?xml version="1.0" encoding="UTF-8"?> <svg xmlns="http://www.w3.org/2000/svg" width="128" height="128" viewBox="0 0 128 128" fill="none"> <path d="M49.3426 127.302C47.3497 126.832 46.0055 124.991 45.9788 122.944C45.8937 116.419 44.4943 109.171 41.7803 101.202C38.5908 91.6497 33.065 82.1837 25.2034 72.8032C18.3826 64.5725 11.0914 58.3371 3.3295 54.0977C1.49109 53.0939 0.467902 51.0125 0.948681 48.9737C1.42004 46.9749 3.20546 45.577 5.25688 45.4815C13.9425 45.0771 22.6715 43.1535 31.4439 39.7111C41.5322 35.7216 50.479 30.1892 58.2844 23.114C65.2018 16.8028 70.4871 10.1939 74.1403 3.28756C75.0974 1.47828 77.1284 0.462617 79.1208 0.932458C81.135 1.40746 82.5028 3.25772 82.5323 5.32739C82.599 9.99986 83.2641 14.9232 84.5277 20.0972C86.1446 26.4997 88.6352 32.8765 92.0008 39.2282C95.5016 45.4959 99.6678 51.3995 104.498 56.9387C110.825 64.1153 117.656 69.7198 124.991 73.7525C126.791 74.7418 127.782 76.7852 127.31 78.7836C126.832 80.8121 124.987 82.2018 122.904 82.277C117.607 82.4677 111.967 83.46 105.985 85.2527C98.7428 87.482 91.7719 90.5275 85.0713 94.3897C78.3972 98.1422 72.6454 102.402 67.8158 107.168C61.8155 113.097 57.3101 119.006 54.3006 124.895C53.3669 126.722 51.3385 127.772 49.3426 127.302Z" fill="url(#paint0_linear_8_65)"></path> <defs> <linearGradient id="paint0_linear_8_65" x1="30.3432" y1="2.10197" x2="83.9407" y2="118.453" gradientUnits="userSpaceOnUse"> <stop stop-color="#FFD89E"></stop> <stop offset="1" stop-color="#FFD9C9"></stop> </linearGradient> </defs> </svg> 