<?xml version="1.0" encoding="UTF-8"?> <svg xmlns="http://www.w3.org/2000/svg" width="177" height="183" viewBox="0 0 177 183" fill="none"> <path d="M94.92 29.5445C109.575 19.437 129.694 28.8205 131.367 46.5437L131.428 47.1874C132.201 55.364 137.218 62.5306 144.637 66.0541L145.221 66.3318C161.302 73.9695 163.235 96.0843 148.723 106.396L148.196 106.77C141.501 111.527 137.803 119.456 138.461 127.643L138.513 128.287C139.939 146.033 121.754 158.764 105.567 151.352L104.979 151.082C97.5118 147.663 88.7968 148.426 82.0358 153.088L81.5036 153.455C66.8491 163.563 46.7303 154.179 45.0562 136.456L44.9953 135.812C44.2227 127.636 39.2054 120.469 31.787 116.945L31.2028 116.668C15.1221 109.03 13.189 86.9158 27.7009 76.6037L28.2279 76.2295C34.9226 71.4724 38.6206 63.5436 37.9628 55.3572L37.911 54.7127C36.4851 36.9675 54.6705 24.2361 70.8566 31.6478L71.4445 31.917C78.9117 35.3363 87.6271 34.5745 94.3878 29.9116L94.92 29.5445Z" fill="url(#paint0_linear_29_286)"></path> <path d="M50.68 103V102.58H54.88V74.0196H50.68V73.5996H60.76V74.0196H56.56V88.0896H62.02C62.02 86.0456 62.258 84.1136 62.734 82.2936C63.238 80.4736 63.952 78.8916 64.876 77.5476C65.828 76.2036 66.976 75.1396 68.32 74.3556C69.664 73.5716 71.204 73.1796 72.94 73.1796C74.676 73.1796 76.216 73.5856 77.56 74.3976C78.932 75.1816 80.08 76.2596 81.004 77.6316C81.928 78.9756 82.628 80.5716 83.104 82.4196C83.608 84.2396 83.86 86.1996 83.86 88.2996C83.86 90.3996 83.608 92.3736 83.104 94.2216C82.628 96.0416 81.928 97.6376 81.004 99.0096C80.08 100.354 78.932 101.432 77.56 102.244C76.216 103.028 74.676 103.42 72.94 103.42C71.204 103.42 69.664 103.028 68.32 102.244C66.976 101.46 65.828 100.396 64.876 99.0516C63.952 97.7076 63.238 96.1396 62.734 94.3476C62.258 92.5276 62.02 90.5816 62.02 88.5096H56.56V102.58H60.76V103H50.68ZM72.94 103C74.62 103 76.048 102.622 77.224 101.866C78.4 101.082 79.352 100.032 80.08 98.7156C80.808 97.3716 81.34 95.8036 81.676 94.0116C82.012 92.2196 82.18 90.3156 82.18 88.2996C82.18 86.2836 82.012 84.3796 81.676 82.5876C81.34 80.7956 80.808 79.2416 80.08 77.9256C79.352 76.5816 78.4 75.5316 77.224 74.7756C76.048 73.9916 74.62 73.5996 72.94 73.5996C71.26 73.5996 69.832 73.9916 68.656 74.7756C67.48 75.5316 66.528 76.5816 65.8 77.9256C65.072 79.2416 64.54 80.7956 64.204 82.5876C63.868 84.3796 63.7 86.2836 63.7 88.2996C63.7 90.3156 63.868 92.2196 64.204 94.0116C64.54 95.8036 65.072 97.3716 65.8 98.7156C66.528 100.032 67.48 101.082 68.656 101.866C69.832 102.622 71.26 103 72.94 103ZM87.7562 102.916C88.5122 102.916 89.1562 102.342 89.6882 101.194C90.2482 100.018 90.6962 98.4216 91.0322 96.4056C91.3962 94.3616 91.6622 91.9676 91.8302 89.2236C92.0262 86.4796 92.1242 83.5256 92.1242 80.3616V79.8996H88.7642V79.4796H104.976V79.8996H101.616V102.58H104.976V103H96.8282V102.58H100.188V79.8996H92.5442V80.3616C92.5442 83.5816 92.4462 86.5916 92.2502 89.3916C92.0822 92.1636 91.8022 94.5856 91.4102 96.6576C91.0182 98.7296 90.5282 100.368 89.9402 101.572C89.3522 102.748 88.6522 103.336 87.8402 103.336C87.6162 103.336 87.3082 103.266 86.9162 103.126C86.5242 103.014 86.2162 102.846 85.9922 102.622L86.2022 102.244C86.4822 102.524 86.7622 102.706 87.0422 102.79C87.3502 102.874 87.5882 102.916 87.7562 102.916ZM106.802 103V102.58H110.162L114.908 94.7256C114.152 94.5856 113.438 94.2916 112.766 93.8436C112.094 93.3956 111.506 92.8356 111.002 92.1636C110.498 91.4916 110.106 90.7356 109.826 89.8956C109.546 89.0276 109.406 88.1036 109.406 87.1236C109.406 86.0876 109.574 85.1076 109.91 84.1836C110.246 83.2316 110.708 82.4196 111.296 81.7476C111.884 81.0476 112.57 80.5016 113.354 80.1096C114.138 79.6896 114.978 79.4796 115.874 79.4796H124.778V79.8996H121.418V102.58H124.778V103H116.672V102.58H119.99V79.8996H115.874C115.062 79.8996 114.334 80.0956 113.69 80.4876C113.074 80.8516 112.556 81.3696 112.136 82.0416C111.716 82.6856 111.394 83.4556 111.17 84.3516C110.946 85.2196 110.834 86.1436 110.834 87.1236C110.834 88.0196 110.932 88.8736 111.128 89.6856C111.352 90.4696 111.646 91.1836 112.01 91.8276C112.402 92.4716 112.864 93.0176 113.396 93.4656C113.928 93.8856 114.53 94.1656 115.202 94.3056C115.202 94.2776 115.216 94.2496 115.244 94.2216C115.272 94.1936 115.286 94.1656 115.286 94.1376C115.594 93.7456 115.888 93.3816 116.168 93.0456C116.476 92.6816 116.854 92.3876 117.302 92.1636C117.75 91.9396 118.17 91.8276 118.562 91.8276C118.982 91.8276 119.262 91.9396 119.402 92.1636C119.57 92.4156 119.598 92.7236 119.486 93.0876C119.374 93.4236 119.08 93.7456 118.604 94.0536C118.24 94.2776 117.806 94.4596 117.302 94.5996C116.826 94.7116 116.35 94.7676 115.874 94.7676H115.496L112.01 102.58H115.37V103H106.802ZM115.874 94.3476C116.322 94.3476 116.77 94.3056 117.218 94.2216C117.666 94.1096 118.044 93.9416 118.352 93.7176C118.632 93.5216 118.842 93.2976 118.982 93.0456C119.122 92.7936 119.15 92.5976 119.066 92.4576C118.954 92.3176 118.73 92.2616 118.394 92.2896C118.086 92.2896 117.778 92.3736 117.47 92.5416C117.106 92.7656 116.756 93.0736 116.42 93.4656C116.112 93.8296 115.874 94.1236 115.706 94.3476H115.874Z" fill="#1C1C1C"></path> <defs> <linearGradient id="paint0_linear_29_286" x1="118.012" y1="27.6077" x2="58.4125" y2="155.392" gradientUnits="userSpaceOnUse"> <stop stop-color="#B8DBFC"></stop> <stop offset="1" stop-color="#F8FBFE"></stop> </linearGradient> </defs> </svg> 